<?xml version="1.0" encoding="iso-8859-1"?>
<!-- Generator: Adobe Illustrator 18.1.1, SVG Export Plug-In . SVG Version: 6.00 Build 0)  -->
<svg version="1.1" id="Capa_1" xmlns="http://www.w3.org/2000/svg" xmlns:xlink="http://www.w3.org/1999/xlink" x="0px" y="0px"
	 viewBox="0 0 298.182 298.182" style="enable-background:new 0 0 298.182 298.182;" xml:space="preserve">
<g>
	<path style="fill:#010002;" d="M274.467,0h-31.803v91.156v125.113h19.87c3.3,0,5.967-2.673,5.967-5.967V146.29
		c3.3,0,5.967-2.673,5.967-5.967V91.239c0-0.036-0.012-0.048-0.012-0.078h0.012c3.3,0,5.967-2.673,5.967-5.967V24.697v-6.492V5.967
		C280.434,2.673,277.767,0,274.467,0z"/>
	<path style="fill:#010002;" d="M27.97,272.232c-5.645,0-10.221,5.346-10.221,11.934v2.082c0,6.593,5.346,11.934,11.934,11.934
		h171.213c16.48,0,29.834-13.36,29.834-29.834V0H29.688c-6.587,0-11.934,5.346-11.934,11.934v2.076
		c0,6.587,4.213,11.934,9.41,11.934h9.41v58.41c0,0-4.213,0-9.41,0c-5.197,0-9.41,5.346-9.41,11.934v7.178
		c0,6.587,4.421,11.934,9.875,11.934h9.875v64.377c0,0-4.421,0-9.875,0s-9.875,5.34-9.875,11.934v7.178
		c0,6.587,4.577,11.934,10.221,11.934h10.221v61.411C38.191,272.232,33.62,272.232,27.97,272.232z"/>
</g>
<g>
</g>
<g>
</g>
<g>
</g>
<g>
</g>
<g>
</g>
<g>
</g>
<g>
</g>
<g>
</g>
<g>
</g>
<g>
</g>
<g>
</g>
<g>
</g>
<g>
</g>
<g>
</g>
<g>
</g>
</svg>
