<?xml version="1.0" encoding="iso-8859-1"?>
<!-- Generator: Adobe Illustrator 18.1.1, SVG Export Plug-In . SVG Version: 6.00 Build 0)  -->
<svg version="1.1" id="Capa_1" xmlns="http://www.w3.org/2000/svg" xmlns:xlink="http://www.w3.org/1999/xlink" x="0px" y="0px"
	 viewBox="0 0 373.172 373.172" style="enable-background:new 0 0 373.172 373.172;" xml:space="preserve">
<g>
	<path style="fill:#010002;" d="M26.659,326.252c35.538,35.53,93.105,35.546,128.651,0.016c9.055-9.055,15.599-19.996,20.321-31.124
		c1.821-4.268,6.031-7.259,10.965-7.283c4.91,0.033,9.153,3.016,10.949,7.275c4.731,11.096,11.274,22.069,20.346,31.141
		c35.514,35.506,93.105,35.522,128.635,0c35.538-35.514,35.514-93.121,0.008-128.635c-17.842-17.826-41.228-26.743-64.622-26.702
		l-95.316-0.016l-95.324,0.033c-23.418-0.049-46.812,8.836-64.63,26.645C-8.896,233.139-8.871,290.738,26.659,326.252z
		 M247.797,249.209h23.207l0.008-23.215c0-7.039,5.698-12.746,12.737-12.737c7.056,0,12.737,5.698,12.729,12.721v23.223
		l23.215-0.008c7.023-0.024,12.737,5.69,12.721,12.729c0.008,7.047-5.69,12.737-12.737,12.737l-23.207,0.016l0.016,23.215
		c0,7.056-5.682,12.737-12.737,12.737c-7.023-0.008-12.729-5.706-12.729-12.729l0.008-23.24l-23.231,0.016
		c-7.015,0-12.713-5.69-12.729-12.729C235.059,254.908,240.749,249.209,247.797,249.209z M119.772,218.435
		c3.373-3.365,7.958-5.406,13.063-5.414c5.097,0.008,9.714,2.065,13.063,5.422c3.357,3.349,5.43,7.982,5.454,13.087
		c-0.016,5.097-2.081,9.665-5.454,13.038c-3.333,3.333-7.958,5.438-13.038,5.454c-5.145-0.008-9.762-2.089-13.103-5.43
		c-3.357-3.365-5.43-7.966-5.414-13.095C114.342,226.417,116.439,221.784,119.772,218.435z M111.757,280.675
		c0.016,15.517-12.591,28.084-28.084,28.068c-15.493,0.016-28.068-12.559-28.068-28.068c0-15.469,12.591-28.06,28.076-28.076
		C99.166,252.599,111.732,265.166,111.757,280.675z M56.775,202.852c3.373-3.365,7.958-5.406,13.063-5.414
		c5.097,0.008,9.714,2.065,13.063,5.422c3.357,3.349,5.43,7.982,5.454,13.087c-0.016,5.097-2.081,9.665-5.454,13.038
		c-3.333,3.333-7.958,5.438-13.038,5.454c-5.145-0.008-9.762-2.089-13.103-5.43c-3.357-3.365-5.43-7.966-5.414-13.095
		C51.345,210.834,53.442,206.201,56.775,202.852z"/>
	<path style="fill:#010002;" d="M179.484,129.695l-24.906-0.13c-6.544-0.244-12.225,5.381-12.258,12.128
		c-0.033,6.73,5.397,12.225,12.128,12.258l37.058,0.195c0.024,0,0.041,0,0.065,0c6.69,0,12.136-5.397,12.193-12.095l0.512-66.695
		c0.065-9.088,3.544-17.655,9.527-23.508c4.869-4.747,11.047-7.234,17.387-7.202l38.968,0.642c0.065,0,0.138,0,0.203,0
		c6.633,0,12.071-5.324,12.185-11.998c0.114-6.73-5.251-12.282-11.998-12.388L231.58,20.26
		c-12.868,0.106-25.264,4.812-34.815,14.136c-10.616,10.356-16.769,25.231-16.875,40.773L179.484,129.695z"/>
</g>
<g>
</g>
<g>
</g>
<g>
</g>
<g>
</g>
<g>
</g>
<g>
</g>
<g>
</g>
<g>
</g>
<g>
</g>
<g>
</g>
<g>
</g>
<g>
</g>
<g>
</g>
<g>
</g>
<g>
</g>
</svg>
