<?xml version="1.0" encoding="iso-8859-1"?>
<!-- Generator: Adobe Illustrator 18.1.1, SVG Export Plug-In . SVG Version: 6.00 Build 0)  -->
<svg version="1.1" id="Capa_1" xmlns="http://www.w3.org/2000/svg" xmlns:xlink="http://www.w3.org/1999/xlink" x="0px" y="0px"
	 viewBox="0 0 292.702 292.702" style="enable-background:new 0 0 292.702 292.702;" xml:space="preserve">
<g>
	<path style="fill:#010002;" d="M239.576,139.486c11.404-9.202,10.868-28.791-1.203-43.772l-63.159-78.335
		c-3.95-4.902-8.649-8.665-13.575-11.242C157.176,2.365,151.486,0,145.187,0c-8.283,0-15.566,4.007-20.24,10.112
		c-2.666,2.057-5.186,4.454-7.462,7.275L54.334,95.722c-12.071,14.973-12.616,34.571-1.211,43.764
		c11.404,9.21,30.45,4.536,42.521-10.445l23.971-29.734v167.814c0,14.119,11.453,25.581,25.572,25.581
		c14.127,0,25.573-11.461,25.573-25.581V96.429l26.288,32.62C209.134,144.006,228.171,148.696,239.576,139.486z"/>
</g>
<g>
</g>
<g>
</g>
<g>
</g>
<g>
</g>
<g>
</g>
<g>
</g>
<g>
</g>
<g>
</g>
<g>
</g>
<g>
</g>
<g>
</g>
<g>
</g>
<g>
</g>
<g>
</g>
<g>
</g>
</svg>
