<?xml version="1.0" encoding="iso-8859-1"?>
<!-- Generator: Adobe Illustrator 18.1.1, SVG Export Plug-In . SVG Version: 6.00 Build 0)  -->
<svg version="1.1" id="Capa_1" xmlns="http://www.w3.org/2000/svg" xmlns:xlink="http://www.w3.org/1999/xlink" x="0px" y="0px"
	 viewBox="0 0 276.993 276.993" style="enable-background:new 0 0 276.993 276.993;" xml:space="preserve">
<g>
	<path style="fill:#010002;" d="M99.659,166.426c0,0,8.527-6.677,12.781,0.448c2.53,4.23-2.637,11.904-2.637,11.904
		s-23.33,47.144-0.43,66.584c65.367,55.48,164.894-45.861,167.55-111.712c2.631-65.856-68.786-144.022-177.258-109.635
		C-8.801,58.408-7.65,149.146,7.065,167.757C46.44,217.556,99.659,166.426,99.659,166.426z M223.459,108.518
		c11.206,0,20.281,9.082,20.281,20.281c0,11.2-9.076,20.281-20.281,20.281c-11.206,0-20.281-9.082-20.281-20.281
		S212.253,108.518,223.459,108.518z M194.251,202.257c0,16.689-13.533,30.228-30.228,30.228c-16.701,0-30.228-13.539-30.228-30.228
		c0-16.701,13.533-30.228,30.228-30.228C180.724,172.029,194.251,185.556,194.251,202.257z M143.742,42.828
		c11.206,0,20.281,9.076,20.281,20.275c0,11.206-9.076,20.281-20.281,20.281c-11.2,0-20.281-9.076-20.281-20.281
		C123.454,51.904,132.542,42.828,143.742,42.828z M57.025,78.695c11.206,0,20.281,9.076,20.281,20.275s-9.076,20.281-20.281,20.281
		c-11.2,0-20.275-9.088-20.275-20.281C36.75,87.771,45.825,78.695,57.025,78.695z"/>
</g>
<g>
</g>
<g>
</g>
<g>
</g>
<g>
</g>
<g>
</g>
<g>
</g>
<g>
</g>
<g>
</g>
<g>
</g>
<g>
</g>
<g>
</g>
<g>
</g>
<g>
</g>
<g>
</g>
<g>
</g>
</svg>
