<?xml version="1.0" encoding="iso-8859-1"?>
<!-- Generator: Adobe Illustrator 16.0.0, SVG Export Plug-In . SVG Version: 6.00 Build 0)  -->
<!DOCTYPE svg PUBLIC "-//W3C//DTD SVG 1.1//EN" "http://www.w3.org/Graphics/SVG/1.1/DTD/svg11.dtd">
<svg version="1.1" id="Capa_1" xmlns="http://www.w3.org/2000/svg" xmlns:xlink="http://www.w3.org/1999/xlink" x="0px" y="0px"
	 width="274.225px" height="274.225px" viewBox="0 0 274.225 274.225" style="enable-background:new 0 0 274.225 274.225;"
	 xml:space="preserve">
<g>
	<path style="fill:#030303;" d="M71.375,33.714c-7.302,0-13.246,5.943-13.246,13.245c0,2.019,0.486,3.906,1.301,5.621
		c1.921-5.492,6.53-9.375,11.934-9.375c5.415,0,10.029,3.895,11.945,9.403c0.821-1.721,1.312-3.619,1.312-5.649
		C84.621,39.657,78.677,33.714,71.375,33.714z"/>
	<path style="fill:#030303;" d="M201.917,33.714c-7.302,0-13.242,5.943-13.242,13.245c0,2.505,0.737,4.818,1.949,6.816
		c1.636-6.11,6.473-10.576,12.248-10.576c5.021,0,9.32,3.374,11.453,8.251c0.51-1.413,0.841-2.911,0.841-4.492
		C215.166,39.657,209.22,33.714,201.917,33.714z"/>
	<path style="fill:#030303;" d="M216.007,0H58.229C37.484,0,20.662,16.817,20.662,37.567v199.09
		c0,20.751,16.822,37.567,37.567,37.567h157.771c20.745,0,37.562-16.816,37.562-37.567V37.567C253.568,16.817,236.752,0,216.007,0z
		 M215.767,67.693v33.087c0,40.758-35.286,73.916-78.648,73.916c-43.357,0-78.648-33.158-78.648-73.916V68.208
		c-7.19-4.386-12.051-12.231-12.051-21.249c0-13.76,11.196-24.956,24.956-24.956c13.761,0,24.957,11.196,24.957,24.956
		c0,9.029-4.872,16.88-12.074,21.26v32.567c0,26.543,23.713,48.128,52.854,48.128c29.147,0,52.86-21.585,52.86-48.128V68.733
		c-7.72-4.251-13.015-12.359-13.015-21.774c0-13.76,11.196-24.956,24.954-24.956c13.757,0,24.953,11.196,24.953,24.956
		C226.877,55.591,222.451,63.213,215.767,67.693z"/>
</g>
<g>
</g>
<g>
</g>
<g>
</g>
<g>
</g>
<g>
</g>
<g>
</g>
<g>
</g>
<g>
</g>
<g>
</g>
<g>
</g>
<g>
</g>
<g>
</g>
<g>
</g>
<g>
</g>
<g>
</g>
</svg>
