<?xml version="1.0" encoding="iso-8859-1"?>
<!-- Generator: Adobe Illustrator 18.1.1, SVG Export Plug-In . SVG Version: 6.00 Build 0)  -->
<svg version="1.1" id="Capa_1" xmlns="http://www.w3.org/2000/svg" xmlns:xlink="http://www.w3.org/1999/xlink" x="0px" y="0px"
	 viewBox="0 0 448.762 448.762" style="enable-background:new 0 0 448.762 448.762;" xml:space="preserve">
<g>
	<path style="fill:#010002;" d="M429.359,159.657h-28.182v-16.241c0-21.427-17.371-38.798-38.781-38.798H38.798
		C17.355,104.619,0,121.99,0,143.417V305.37c0,21.403,17.363,38.773,38.798,38.773h323.599c21.411,0,38.781-17.371,38.781-38.773
		v-16.972h28.182c10.705,0,19.403-8.706,19.403-19.411v-89.959C448.762,168.331,440.065,159.657,429.359,159.657z M362.404,305.362
		H38.806V143.417h323.599V305.362z"/>
	<path style="fill:#010002;" d="M76.848,276.262h248.604c4.495,0,8.129-3.642,8.129-8.129v-87.512c0-4.487-3.633-8.129-8.129-8.129
		H76.848c-4.495,0-8.129,3.642-8.129,8.129v87.512C68.719,272.62,72.352,276.262,76.848,276.262z"/>
</g>
<g>
</g>
<g>
</g>
<g>
</g>
<g>
</g>
<g>
</g>
<g>
</g>
<g>
</g>
<g>
</g>
<g>
</g>
<g>
</g>
<g>
</g>
<g>
</g>
<g>
</g>
<g>
</g>
<g>
</g>
</svg>
