<?xml version="1.0" encoding="iso-8859-1"?>
<!-- Generator: Adobe Illustrator 18.1.1, SVG Export Plug-In . SVG Version: 6.00 Build 0)  -->
<svg version="1.1" id="Capa_1" xmlns="http://www.w3.org/2000/svg" xmlns:xlink="http://www.w3.org/1999/xlink" x="0px" y="0px"
	 viewBox="0 0 424.913 424.913" style="enable-background:new 0 0 424.913 424.913;" xml:space="preserve">
<g>
	<path style="fill:#010002;" d="M377.499,165.043C377.499,77.124,300.375,0,212.457,0S47.414,77.124,47.414,165.043
		c0,69.54,98.088,174.285,143.486,219.016c-33.01,2.471-57.193,10.502-57.193,20.029c0,11.502,35.254,20.825,78.75,20.825
		s78.75-9.323,78.75-20.825c0-9.527-24.199-17.533-57.209-20.021C279.404,339.335,377.499,234.583,377.499,165.043z
		 M212.457,269.584c-60.485,0-109.687-49.202-109.687-109.679c0-60.485,49.202-109.687,109.687-109.687
		c60.477,0,109.687,49.202,109.687,109.687C322.144,220.374,272.933,269.584,212.457,269.584z"/>
</g>
<g>
</g>
<g>
</g>
<g>
</g>
<g>
</g>
<g>
</g>
<g>
</g>
<g>
</g>
<g>
</g>
<g>
</g>
<g>
</g>
<g>
</g>
<g>
</g>
<g>
</g>
<g>
</g>
<g>
</g>
</svg>
