<?xml version="1.0" encoding="iso-8859-1"?>
<!-- Generator: Adobe Illustrator 18.1.1, SVG Export Plug-In . SVG Version: 6.00 Build 0)  -->
<svg version="1.1" id="Capa_1" xmlns="http://www.w3.org/2000/svg" xmlns:xlink="http://www.w3.org/1999/xlink" x="0px" y="0px"
	 viewBox="0 0 377.328 377.328" style="enable-background:new 0 0 377.328 377.328;" xml:space="preserve">
<g>
	<path style="fill:#010002;" d="M43.594,345.184h290.133c24.036,0,43.602-19.492,43.602-43.585V127.273
		c0-24.093-19.565-43.585-43.602-43.585H159.548v-4.991v-0.618c0-25.386-20.541-45.935-45.951-45.935H45.918
		C20.59,32.144,0,52.693,0,78.079v223.52C0,325.692,19.525,345.184,43.594,345.184z M54.705,134.321
		c0-8.982,7.283-16.257,16.257-16.257h1.65c8.974,0,16.257,7.275,16.257,16.257v131.463c0,8.974-7.283,16.257-16.257,16.257h-1.65
		c-8.982,0-16.257-7.283-16.257-16.257V134.321z"/>
</g>
<g>
</g>
<g>
</g>
<g>
</g>
<g>
</g>
<g>
</g>
<g>
</g>
<g>
</g>
<g>
</g>
<g>
</g>
<g>
</g>
<g>
</g>
<g>
</g>
<g>
</g>
<g>
</g>
<g>
</g>
</svg>
