<?xml version="1.0" encoding="iso-8859-1"?>
<!-- Generator: Adobe Illustrator 18.1.1, SVG Export Plug-In . SVG Version: 6.00 Build 0)  -->
<svg version="1.1" id="Capa_1" xmlns="http://www.w3.org/2000/svg" xmlns:xlink="http://www.w3.org/1999/xlink" x="0px" y="0px"
	 viewBox="0 0 453.924 453.924" style="enable-background:new 0 0 453.924 453.924;" xml:space="preserve">
<g>
	<path style="fill:#010002;" d="M112.504,453.924h228.925c24.865,0,45.13-20.232,45.13-45.13v-80.538V89.447
		c0-24.914-20.265-45.146-45.13-45.146h-37.156c0,0,0-9.917,0-22.15S292.738,0,278.505,0H175.427
		c-14.225,0-25.768,9.917-25.768,22.15v22.15h-37.156c-24.882,0-45.138,20.232-45.138,45.146v319.339
		C67.366,433.692,87.622,453.924,112.504,453.924z M226.97,18.972c9.681,0,17.533,7.852,17.533,17.533s-7.852,17.541-17.533,17.541
		c-9.681,0-17.533-7.852-17.533-17.541S217.281,18.972,226.97,18.972z"/>
</g>
<g>
</g>
<g>
</g>
<g>
</g>
<g>
</g>
<g>
</g>
<g>
</g>
<g>
</g>
<g>
</g>
<g>
</g>
<g>
</g>
<g>
</g>
<g>
</g>
<g>
</g>
<g>
</g>
<g>
</g>
</svg>
