<?xml version="1.0" encoding="iso-8859-1"?>
<!-- Generator: Adobe Illustrator 18.1.1, SVG Export Plug-In . SVG Version: 6.00 Build 0)  -->
<svg version="1.1" id="Capa_1" xmlns="http://www.w3.org/2000/svg" xmlns:xlink="http://www.w3.org/1999/xlink" x="0px" y="0px"
	 viewBox="0 0 405.014 405.014" style="enable-background:new 0 0 405.014 405.014;" xml:space="preserve">
<g>
	<path style="fill:#010002;" d="M311.568,382.112c0-10.104,0-18.289,0-18.289H93.446v18.289c0,10.104,14.558,18.289,32.514,18.289
		h153.094C297.01,400.401,311.568,392.216,311.568,382.112z"/>
	<path style="fill:#010002;" d="M344.229,111.78c0-2.902-1.154-5.674-3.227-7.747l-96.681-96.25c-2.04-2.048-4.82-3.17-7.714-3.17
		H123.4c-24.109,0-43.732,19.557-43.732,43.683v151.143H27.312C12.242,199.439,0,211.688,0,226.783v15.103v15.599v10.933v13.583
		v10.933V304.2v18.785c0,15.095,12.25,27.345,27.312,27.345H377.67c15.095,0,27.345-12.25,27.345-27.345v-96.194
		c0-15.095-12.25-27.345-27.345-27.345h-33.433V111.78H344.229z M244.768,39.046l63.167,62.85h-41.301
		c-12.055,0-21.866-9.771-21.866-21.841V39.046z M101.485,48.296c0-12.055,9.844-21.866,21.915-21.866h99.494v53.624
		c0,24.126,19.631,43.732,43.732,43.732h55.713v75.661H101.485V48.296z M274.567,292.048c-9.47,0-17.159-7.698-17.159-17.192
		c0-9.445,7.69-17.119,17.159-17.119c9.502,0,17.168,7.673,17.168,17.119C291.735,284.35,284.069,292.048,274.567,292.048z
		 M346.984,274.856c0,9.494-7.641,17.192-17.159,17.192c-9.478,0-17.119-7.698-17.119-17.192c0-9.445,7.641-17.119,17.119-17.119
		C339.344,257.737,346.984,265.41,346.984,274.856z"/>
</g>
<g>
</g>
<g>
</g>
<g>
</g>
<g>
</g>
<g>
</g>
<g>
</g>
<g>
</g>
<g>
</g>
<g>
</g>
<g>
</g>
<g>
</g>
<g>
</g>
<g>
</g>
<g>
</g>
<g>
</g>
</svg>
