<?xml version="1.0" encoding="iso-8859-1"?>
<!-- Generator: Adobe Illustrator 18.1.1, SVG Export Plug-In . SVG Version: 6.00 Build 0)  -->
<svg version="1.1" id="Capa_1" xmlns="http://www.w3.org/2000/svg" xmlns:xlink="http://www.w3.org/1999/xlink" x="0px" y="0px"
	 viewBox="0 0 368.176 368.176" style="enable-background:new 0 0 368.176 368.176;" xml:space="preserve">
<g>
	<path style="fill:#010002;" d="M25.556,24.386V343.79c0,13.469,10.917,24.386,24.386,24.386H87.87V0H49.942
		C36.473,0,25.556,10.917,25.556,24.386z"/>
	<path style="fill:#010002;" d="M112.378,0v368.176h211.392c10.421,0,18.85-8.454,18.85-18.801V18.818
		c0-10.372-8.429-18.81-18.85-18.81h-25.207v128.114c0,13.469-7.966,16.924-17.802,7.722l-29.165-27.296L220.39,136.3
		c-10.063,8.958-18.224,5.292-18.224-8.177V0H112.378z M291.092,211.408V253.4H167.806v-41.992H291.092z"/>
</g>
<g>
</g>
<g>
</g>
<g>
</g>
<g>
</g>
<g>
</g>
<g>
</g>
<g>
</g>
<g>
</g>
<g>
</g>
<g>
</g>
<g>
</g>
<g>
</g>
<g>
</g>
<g>
</g>
<g>
</g>
</svg>
