<?xml version="1.0" encoding="iso-8859-1"?>
<!-- Generator: Adobe Illustrator 18.1.1, SVG Export Plug-In . SVG Version: 6.00 Build 0)  -->
<svg version="1.1" id="Capa_1" xmlns="http://www.w3.org/2000/svg" xmlns:xlink="http://www.w3.org/1999/xlink" x="0px" y="0px"
	 viewBox="0 0 421.06 421.06" style="enable-background:new 0 0 421.06 421.06;" xml:space="preserve">
<g>
	<circle style="fill:#010002;" cx="99.433" cy="315.389" r="20.321"/>
	<circle style="fill:#010002;" cx="173.947" cy="315.389" r="20.321"/>
	<circle style="fill:#010002;" cx="247.105" cy="315.389" r="20.321"/>
	<circle style="fill:#010002;" cx="328.39" cy="315.389" r="20.321"/>
	<circle style="fill:#010002;" cx="247.105" cy="246.288" r="20.321"/>
	<path style="fill:#010002;" d="M351.24,40.635h-2.528C348.704,18.184,330.512,0,308.069,0c-22.443,0-40.643,18.184-40.643,40.635
		H160.397C160.389,18.184,142.197,0,119.754,0S79.111,18.184,79.111,40.635H69.78c-35.042,0-63.387,28.434-63.387,63.395v0.041
		v253.595c0,35.002,28.352,63.395,63.387,63.395h281.46c35.002,0,63.427-28.393,63.427-63.395V104.07v-0.041
		C414.667,69.069,386.241,40.635,351.24,40.635z M372.098,356.503c0,10.437-8.486,18.964-18.948,18.964H70.544
		c-10.461,0-18.98-8.527-18.98-18.964V192.769h320.534V356.503z"/>
	<circle style="fill:#010002;" cx="328.39" cy="246.288" r="20.321"/>
</g>
<g>
</g>
<g>
</g>
<g>
</g>
<g>
</g>
<g>
</g>
<g>
</g>
<g>
</g>
<g>
</g>
<g>
</g>
<g>
</g>
<g>
</g>
<g>
</g>
<g>
</g>
<g>
</g>
<g>
</g>
</svg>
