<?xml version="1.0" encoding="iso-8859-1"?>
<!-- Generator: Adobe Illustrator 18.1.1, SVG Export Plug-In . SVG Version: 6.00 Build 0)  -->
<svg version="1.1" id="Capa_1" xmlns="http://www.w3.org/2000/svg" xmlns:xlink="http://www.w3.org/1999/xlink" x="0px" y="0px"
	 viewBox="0 0 441.495 441.495" style="enable-background:new 0 0 441.495 441.495;" xml:space="preserve">
<g>
	<path style="fill:#010002;" d="M298.843,38.058v-15.55c0-12.437-10.031-22.508-22.5-22.508h-23.264
		c-12.453,0-22.532,10.063-22.532,22.508v15.306h-85.334c-16.338,0-29.572,13.241-29.572,29.588v344.473
		c0,16.347,13.233,29.621,29.572,29.621h151.045c16.347,0,29.596-13.274,29.596-29.621V67.394
		C325.846,51.925,313.954,39.407,298.843,38.058z M144.587,92.601c0-4.755,3.853-8.608,8.608-8.608h133.357
		c4.755,0,8.608,3.853,8.608,8.608v94.649c0,4.755-3.853,8.608-8.608,8.608H153.195c-4.755,0-8.608-3.853-8.608-8.608V92.601z
		 M165.786,407.973h-5.259c-9.86,0-17.924-7.999-17.924-17.899c0-9.966,8.064-17.997,17.924-17.997h5.259
		c9.933,0,17.956,8.031,17.956,17.997C183.742,399.967,175.711,407.973,165.786,407.973z M165.786,351.602h-5.259
		c-9.86,0-17.924-8.023-17.924-17.94c0-9.901,8.064-17.956,17.924-17.956h5.259c9.933,0,17.956,8.055,17.956,17.956
		C183.742,343.579,175.711,351.602,165.786,351.602z M165.786,295.262h-5.259c-9.86,0-17.924-8.055-17.924-17.972
		c0-9.868,8.064-17.956,17.924-17.956h5.259c9.933,0,17.956,8.088,17.956,17.956C183.742,287.199,175.711,295.262,165.786,295.262z
		 M223.369,407.973h-5.251c-9.917,0-17.972-7.999-17.972-17.899c0-9.966,8.055-17.997,17.972-17.997h5.251
		c9.884,0,17.923,8.031,17.923,17.997C241.293,399.967,233.254,407.973,223.369,407.973z M223.369,351.602h-5.251
		c-9.917,0-17.972-8.023-17.972-17.94c0-9.901,8.055-17.956,17.972-17.956h5.251c9.884,0,17.923,8.055,17.923,17.956
		C241.293,343.579,233.254,351.602,223.369,351.602z M223.369,295.262h-5.251c-9.917,0-17.972-8.055-17.972-17.972
		c0-9.868,8.055-17.956,17.972-17.956h5.251c9.884,0,17.923,8.088,17.923,17.956C241.293,287.199,233.254,295.262,223.369,295.262z
		 M250.901,234.916h-60.338c-3.747,0-6.747-3.064-6.747-6.747c0-3.69,2.999-6.755,6.747-6.755h60.338c3.731,0,6.73,3.064,6.73,6.755
		C257.639,231.851,254.632,234.916,250.901,234.916z M280.952,407.973h-5.292c-9.909,0-17.956-7.999-17.956-17.899
		c0-9.966,8.047-17.997,17.956-17.997h5.292c9.876,0,17.891,8.031,17.891,17.997C298.843,399.967,290.828,407.973,280.952,407.973z
		 M280.952,351.602h-5.292c-9.909,0-17.956-8.023-17.956-17.94c0-9.901,8.047-17.956,17.956-17.956h5.292
		c9.876,0,17.891,8.055,17.891,17.956C298.843,343.579,290.828,351.602,280.952,351.602z M280.952,295.262h-5.292
		c-9.909,0-17.956-8.055-17.956-17.972c0-9.868,8.047-17.956,17.956-17.956h5.292c9.876,0,17.891,8.088,17.891,17.956
		C298.843,287.199,290.828,295.262,280.952,295.262z"/>
</g>
<g>
</g>
<g>
</g>
<g>
</g>
<g>
</g>
<g>
</g>
<g>
</g>
<g>
</g>
<g>
</g>
<g>
</g>
<g>
</g>
<g>
</g>
<g>
</g>
<g>
</g>
<g>
</g>
<g>
</g>
</svg>
