<?xml version="1.0" encoding="iso-8859-1"?>
<!-- Generator: Adobe Illustrator 18.1.1, SVG Export Plug-In . SVG Version: 6.00 Build 0)  -->
<svg version="1.1" id="Capa_1" xmlns="http://www.w3.org/2000/svg" xmlns:xlink="http://www.w3.org/1999/xlink" x="0px" y="0px"
	 viewBox="0 0 326.346 326.346" style="enable-background:new 0 0 326.346 326.346;" xml:space="preserve">
<g>
	<path style="fill:#010002;" d="M28.211,250.268h235.327c15.579,0,28.211-12.632,28.211-28.217V209.7h20.496
		c7.781,0,14.1-6.307,14.1-14.094v-65.409c0-7.775-6.325-14.106-14.1-14.106H291.75v-11.796c0-15.579-12.626-28.217-28.211-28.217
		H28.211C12.644,76.078,0,88.709,0,104.295v117.756C-0.006,237.637,12.638,250.268,28.211,250.268z M87.922,143.963h23.545
		c8.121-20.574,28.372-35.205,52.079-35.205h11.438c8.724,0,15.824,6.766,16.522,15.311h27.215c6.904,0,12.489,5.597,12.489,12.483
		c0,6.928-5.585,12.507-12.489,12.507h-27.084v27.292h27.084c6.904,0,12.489,5.585,12.489,12.477
		c0,6.898-5.585,12.477-12.489,12.477h-27.084v1.372c0,9.213-7.459,16.665-16.654,16.665h-11.438
		c-24.691,0-45.629-15.949-53.051-37.919H87.916c-10.335,0-18.73-8.395-18.73-18.736C69.192,152.346,77.581,143.963,87.922,143.963z
		"/>
</g>
<g>
</g>
<g>
</g>
<g>
</g>
<g>
</g>
<g>
</g>
<g>
</g>
<g>
</g>
<g>
</g>
<g>
</g>
<g>
</g>
<g>
</g>
<g>
</g>
<g>
</g>
<g>
</g>
<g>
</g>
</svg>
