<?xml version="1.0" encoding="iso-8859-1"?>
<!-- Generator: Adobe Illustrator 18.1.1, SVG Export Plug-In . SVG Version: 6.00 Build 0)  -->
<svg version="1.1" id="Capa_1" xmlns="http://www.w3.org/2000/svg" xmlns:xlink="http://www.w3.org/1999/xlink" x="0px" y="0px"
	 viewBox="0 0 292.15 292.15" style="enable-background:new 0 0 292.15 292.15;" xml:space="preserve">
<g>
	<path style="fill:#010002;" d="M12.802,259.726c0,17.924,59.675,32.424,133.264,32.424c73.613,0,133.288-14.494,133.288-32.424
		v-54.788c0-3.264-2.047-6.414-5.74-9.386H18.548c-3.693,2.972-5.746,6.122-5.746,9.386V259.726z M247.938,223.549
		c4.04,0,7.333,3.288,7.333,7.315c0,4.057-3.294,7.327-7.333,7.327c-4.063,0-7.333-3.27-7.333-7.327
		C240.605,226.837,243.875,223.549,247.938,223.549z"/>
	<path style="fill:#010002;" d="M279.354,87.212v-54.77C279.354,14.511,219.679,0,146.066,0C72.477,0,12.802,14.511,12.802,32.442
		v54.77c0,2.643,1.349,5.203,3.789,7.65h258.98C278.005,92.409,279.354,89.855,279.354,87.212z M48.734,31.827
		c0-8.383,44.596-15.186,99.605-15.186c55.003,0,99.593,6.802,99.593,15.186c0,8.389-44.596,15.186-99.593,15.186
		C93.331,47.013,48.734,40.217,48.734,31.827z M247.938,70.773c-4.063,0-7.333-3.27-7.333-7.333c0-4.022,3.276-7.303,7.333-7.303
		c4.04,0,7.333,3.276,7.333,7.303C255.272,67.503,251.978,70.773,247.938,70.773z"/>
	<path style="fill:#010002;" d="M12.802,173.469c0,3.55,2.351,6.957,6.677,10.15h253.204c4.326-3.192,6.671-6.599,6.671-10.15
		v-54.788c0-4.201-3.312-8.204-9.284-11.886H22.086c-5.973,3.682-9.29,7.685-9.29,11.886v54.788H12.802z M247.938,138.169
		c4.04,0,7.333,3.27,7.333,7.333c0,4.04-3.294,7.309-7.333,7.309c-4.063,0-7.333-3.27-7.333-7.309
		C240.605,141.439,243.875,138.169,247.938,138.169z"/>
</g>
<g>
</g>
<g>
</g>
<g>
</g>
<g>
</g>
<g>
</g>
<g>
</g>
<g>
</g>
<g>
</g>
<g>
</g>
<g>
</g>
<g>
</g>
<g>
</g>
<g>
</g>
<g>
</g>
<g>
</g>
</svg>
