<?xml version="1.0" encoding="iso-8859-1"?>
<!-- Generator: Adobe Illustrator 18.1.1, SVG Export Plug-In . SVG Version: 6.00 Build 0)  -->
<svg version="1.1" id="Capa_1" xmlns="http://www.w3.org/2000/svg" xmlns:xlink="http://www.w3.org/1999/xlink" x="0px" y="0px"
	 viewBox="0 0 414.98 414.98" style="enable-background:new 0 0 414.98 414.98;" xml:space="preserve">
<g>
	<path style="fill:#010002;" d="M93.174,119.661c1.829,1.764,4.235,2.926,6.901,3.17l0.471,0.098l27.093-1.374
		c-5.82,5.495-11.502,11.559-17.021,18.167C67.447,191.469,77.039,279.818,77.47,283.59c0.553,4.609,3.796,8.405,8.283,9.665
		c4.43,1.219,9.283-0.382,12.038-3.951c4.43-5.633,43.374-55.746,45.357-79.676c0.065-0.723,0.122-1.455,0.179-2.195l0.569,0.008
		c3.487,0,6.73-1.561,8.868-4.243l21.142-26.141c1.333-1.674,2.154-3.625,2.414-5.657c0.309-0.187,0.602-0.382,0.878-0.593
		c0.886-0.65,18.996-14.127,31.303-36.367c27.353,31.962,107.021,135.698,109.63,262.325c0.089,4.194,2.447,7.999,6.373,10.023
		c2.78,1.366,17.623,8.194,36.749,8.194c12.307,0,23.825-2.821,34.229-8.372c4.503-2.398,6.885-7.56,5.779-12.534
		c-1.821-8.218-43.171-190.843-145.306-266.699c2.414-0.447,3.951-0.821,4.381-0.935c0.374-0.098,0.74-0.203,1.097-0.341
		c1.772,1.081,3.837,1.683,5.95,1.683h33.563c3.682,0,7.064-1.731,9.234-4.69c0.593,0.415,1.195,0.837,1.796,1.236
		c19.33,13.128,78.774,14.631,90,14.778l0.862,0.033c4.471,0,8.397-2.617,10.331-6.991c1.788-4.268,0.845-9.153-2.39-12.437
		c-2.349-2.39-53.161-53.543-112.475-63.11c22.793-2.39,60.712-19.696,68.565-23.37c4.235-1.983,6.812-6.275,6.568-10.892
		c-0.219-4.617-3.178-8.624-7.69-10.258C362.173,10.844,329.74,0,293.202,0c-22.557,0-42.171,4.146-58.298,12.331
		c-35.27,17.907-51.153,38.497-58.062,51.178c-12.77-4.78-31.962-9.202-58.323-8.324C58.791,57.266,6.02,115.808,3.785,118.328
		c-3.073,3.487-3.739,8.421-1.707,12.591c1.935,3.95,5.877,6.47,11.014,6.373c10.356-0.675,62.883-4.682,79.587-17.298
		C92.841,119.921,93.004,119.791,93.174,119.661z"/>
</g>
<g>
</g>
<g>
</g>
<g>
</g>
<g>
</g>
<g>
</g>
<g>
</g>
<g>
</g>
<g>
</g>
<g>
</g>
<g>
</g>
<g>
</g>
<g>
</g>
<g>
</g>
<g>
</g>
<g>
</g>
</svg>
