<?xml version="1.0" encoding="iso-8859-1"?>
<!-- Generator: Adobe Illustrator 18.1.1, SVG Export Plug-In . SVG Version: 6.00 Build 0)  -->
<svg version="1.1" id="Capa_1" xmlns="http://www.w3.org/2000/svg" xmlns:xlink="http://www.w3.org/1999/xlink" x="0px" y="0px"
	 viewBox="0 0 365.266 365.266" style="enable-background:new 0 0 365.266 365.266;" xml:space="preserve">
<g>
	<path style="fill:#010002;" d="M340.563,140.978l-20.582-2.943c-2.349-7.202-5.267-14.201-8.698-20.89
		c0,0,5.601-7.462,12.502-16.664c6.909-9.202,6.69-25.963-2.04-36.213c-6.348-7.438-13.282-14.371-20.736-20.712
		c-10.258-8.73-27.011-8.941-36.197-2.04l-16.647,12.502c-6.69-3.39-13.664-6.316-20.923-8.698c0,0-1.301-9.218-2.902-20.582
		c-1.601-11.372-11.453-22.541-22.183-23.687c-6.413-0.691-12.916-1.049-19.5-1.049c-6.592,0-13.087,0.358-19.484,1.04
		c-10.722,1.154-20.582,12.323-22.199,23.695l-2.918,20.582c-7.243,2.382-14.209,5.308-20.955,8.698c0,0-7.438-5.592-16.623-12.502
		c-9.177-6.901-25.914-6.682-36.172,2.04c-7.454,6.34-14.388,13.274-20.728,20.712c-8.738,10.25-8.95,27.011-2.048,36.213
		l12.485,16.664c-3.447,6.69-6.316,13.697-8.681,20.89c0,0-9.218,1.317-20.573,2.943c-11.356,1.618-22.549,11.453-23.695,22.167
		C0.35,169.55,0,176.053,0,182.604c0,6.609,0.35,13.103,1.032,19.5c1.146,10.73,12.347,20.598,23.703,22.215l20.573,2.934
		c2.365,7.259,5.243,14.192,8.681,20.939c0,0-5.592,7.446-12.485,16.639c-6.901,9.185-6.69,25.93,2.04,36.188
		c6.34,7.446,13.274,14.379,20.728,20.72c10.258,8.722,27.003,8.925,36.18,2.008l16.623-12.502
		c6.747,3.422,13.721,6.332,20.955,8.714c0,0,1.309,9.218,2.918,20.582c1.609,11.356,11.469,22.573,22.199,23.711
		c6.397,0.675,12.9,1.008,19.484,1.008c6.592,0,13.087-0.333,19.5-1.016c10.73-1.13,20.582-12.347,22.183-23.703l2.902-20.582
		c7.267-2.382,14.233-5.292,20.923-8.714c0,0,7.454,5.592,16.647,12.502c9.185,6.917,25.946,6.722,36.205-2
		c7.454-6.348,14.388-13.282,20.728-20.728c8.73-10.258,8.95-27.003,2.04-36.188l-12.502-16.639
		c3.43-6.747,6.348-13.689,8.698-20.939c0,0,9.218-1.317,20.582-2.934c11.364-1.618,22.557-11.486,23.703-22.215
		c0.675-6.397,1.024-12.9,1.024-19.5c0-6.56-0.35-13.046-1.032-19.46C363.112,152.447,351.927,142.595,340.563,140.978z
		 M182.649,263.923c-44.894,0-81.286-36.4-81.286-81.286s36.392-81.286,81.286-81.286c44.886,0,81.286,36.4,81.286,81.286
		S227.535,263.923,182.649,263.923z"/>
</g>
<g>
</g>
<g>
</g>
<g>
</g>
<g>
</g>
<g>
</g>
<g>
</g>
<g>
</g>
<g>
</g>
<g>
</g>
<g>
</g>
<g>
</g>
<g>
</g>
<g>
</g>
<g>
</g>
<g>
</g>
</svg>
