<?xml version="1.0" encoding="iso-8859-1"?>
<!-- Generator: Adobe Illustrator 18.1.1, SVG Export Plug-In . SVG Version: 6.00 Build 0)  -->
<svg version="1.1" id="Capa_1" xmlns="http://www.w3.org/2000/svg" xmlns:xlink="http://www.w3.org/1999/xlink" x="0px" y="0px"
	 viewBox="0 0 419.142 419.142" style="enable-background:new 0 0 419.142 419.142;" xml:space="preserve">
<g>
	<path style="fill:#010002;" d="M89.492,381.059c34.067,23.914,75.417,38.082,120.083,38.082
		c115.58,0,209.538-93.991,209.538-209.538c0-22.467-3.617-44.024-10.193-64.354c-17.761-54.941-57.697-99.892-109.183-124.538
		C272.368,7.584,241.902-0.008,209.567,0C94.052-0.008,0.028,94.072,0.028,209.603c0,46.43,15.371,89.227,40.984,123.985
		C54.531,351.902,70.836,367.94,89.492,381.059z M352.394,92.406c12.9,15.639,23.288,33.4,30.507,52.706
		c1.569,4.202-0.788,8.795-5.056,10.177l-73.336,23.703c-4.268,1.382-8.803-0.984-10.551-5.121
		c-2.349-5.568-5.243-10.86-8.608-15.786c-2.536-3.723-2.292-9.055,0.919-12.201l55.022-53.949
		C344.493,88.797,349.541,88.943,352.394,92.406z M252.51,119.612l33.132-69.491c1.935-4.056,6.795-5.771,10.762-3.674
		c3.861,2.04,7.641,4.202,11.347,6.503c3.812,2.374,4.861,7.551,2.479,11.356l-41.057,65.427c-2.382,3.804-7.21,4.658-11.006,2.268
		c-0.65-0.415-1.309-0.821-1.975-1.211C252.323,128.488,250.576,123.668,252.51,119.612z M209.567,154.906
		c30.124,0,54.665,24.565,54.673,54.689c-0.008,30.149-24.548,54.64-54.673,54.632c-30.124,0-54.632-24.483-54.632-54.632
		C154.943,179.471,179.451,154.906,209.567,154.906z M67.325,314.234l61.997-45.577c3.617-2.658,8.673-1.853,11.64,1.52
		c2.975,3.39,6.194,6.552,9.64,9.47c3.43,2.894,4.341,7.95,1.772,11.624l-44.154,63.045c-2.569,3.682-7.649,4.576-11.201,1.829
		c-11.599-8.95-22.077-19.248-31.279-30.653C62.927,321.989,63.708,316.901,67.325,314.234z"/>
	<circle style="fill:#010002;" cx="209.567" cy="209.571" r="33.482"/>
</g>
<g>
</g>
<g>
</g>
<g>
</g>
<g>
</g>
<g>
</g>
<g>
</g>
<g>
</g>
<g>
</g>
<g>
</g>
<g>
</g>
<g>
</g>
<g>
</g>
<g>
</g>
<g>
</g>
<g>
</g>
</svg>
