<?xml version="1.0" encoding="iso-8859-1"?>
<!-- Generator: Adobe Illustrator 18.1.1, SVG Export Plug-In . SVG Version: 6.00 Build 0)  -->
<svg version="1.1" id="Capa_1" xmlns="http://www.w3.org/2000/svg" xmlns:xlink="http://www.w3.org/1999/xlink" x="0px" y="0px"
	 viewBox="0 0 420.995 420.995" style="enable-background:new 0 0 420.995 420.995;" xml:space="preserve">
<g>
	<path style="fill:#010002;" d="M127.505,196.313c22.15,0,27.45-12.827,11.77-28.458l-31.165-31.197
		c4.406-6.194,9.234-12.006,14.599-17.257c1.878-1.788,3.796-3.512,5.763-5.17c2.3-2.008,4.715-3.861,7.145-5.698
		c2.146-1.561,4.292-3.146,6.487-4.593c3.65-2.341,7.364-4.511,11.226-6.454c1.723-0.87,3.438-1.626,5.194-2.439
		c4.04-1.837,8.202-3.471,12.494-4.926c0.845-0.236,1.626-0.602,2.463-0.845c5.194-1.561,10.478-2.707,15.875-3.617
		c1.39-0.244,2.78-0.455,4.17-0.634c5.601-0.764,11.25-1.301,17.013-1.301c0.179,0,0.358,0.065,0.536,0.065
		c4.113,0,8.096,0.171,12.103,0.593c1.967,0.187,3.861,0.585,5.763,0.862c2.292,0.358,4.552,0.593,6.755,1.024
		c1.626,0.366,3.195,0.813,4.771,1.203c2.552,0.602,5.154,1.211,7.657,2.016c1.138,0.333,2.235,0.813,3.349,1.179
		c2.991,1.032,5.918,2.057,8.787,3.325c14.534,6.218,27.946,15.2,39.464,26.735c12.372,12.315,21.85,26.784,28.182,42.927
		c6.942,17.607,26.776,26.223,44.358,19.313c17.623-6.901,26.255-26.751,19.305-44.317c-9.779-24.987-24.435-47.325-43.447-66.329
		c-17.322-17.289-37.416-30.775-59.143-40.399c-0.301-0.154-0.536-0.333-0.845-0.455c-0.252-0.122-0.488-0.187-0.732-0.301
		c-4.885-2.089-9.868-3.894-14.932-5.584c-1.211-0.423-2.382-0.935-3.617-1.292c-4.804-1.52-9.665-2.731-14.55-3.812
		c-1.544-0.366-3.073-0.87-4.617-1.171c-4.885-0.992-9.836-1.65-14.81-2.252c-1.544-0.187-3.048-0.553-4.625-0.732
		c-6.519-0.634-13.152-0.975-19.785-0.975c-0.358,0-0.788,0.065-1.179,0.065c-5.462,0-10.835,0.309-16.151,0.788
		c-1.861,0.13-3.739,0.366-5.601,0.602c-4.081,0.488-8.12,1.097-12.128,1.821c-1.813,0.301-3.585,0.626-5.373,0.992
		c-5.064,1.057-10.136,2.325-15.054,3.78c-0.463,0.146-0.943,0.236-1.423,0.382c-5.796,1.756-11.469,3.837-17.013,6.096
		c-0.585,0.219-1.089,0.488-1.634,0.699c-5.259,2.227-10.437,4.674-15.452,7.332c-0.333,0.154-0.658,0.325-1.016,0.504
		C95.69,50.6,75.409,67.191,58.997,87.602l-30.539-30.58C12.803,41.391,0,46.674,0,68.825v87.211
		c0,22.183,18.102,40.277,40.228,40.277C40.228,196.313,127.505,196.313,127.505,196.313z"/>
	<path style="fill:#010002;" d="M380.783,224.706h-87.268c-22.118,0-27.393,12.786-11.77,28.45l31.197,31.206
		c-4.406,6.121-9.161,11.86-14.542,17.111c-1.902,1.861-3.894,3.642-5.918,5.357c-2.235,1.935-4.536,3.715-6.844,5.43
		c-2.3,1.691-4.593,3.406-6.999,4.926c-3.536,2.252-7.153,4.373-10.9,6.235c-1.74,0.894-3.495,1.723-5.267,2.536
		c-4.024,1.821-8.12,3.438-12.282,4.828c-0.91,0.301-1.756,0.658-2.658,0.91c-5.162,1.593-10.445,2.715-15.843,3.617
		c-1.39,0.236-2.812,0.423-4.202,0.658c-5.568,0.699-11.217,1.203-16.948,1.203c-4.284,0-8.511-0.179-12.729-0.602
		c-1.788-0.179-3.56-0.536-5.316-0.788c-2.406-0.301-4.82-0.658-7.243-1.122c-1.504-0.26-3.016-0.788-4.519-1.105
		c-2.626-0.675-5.251-1.276-7.852-2.065c-1.146-0.366-2.268-0.845-3.438-1.203c-2.894-1.024-5.763-2.048-8.633-3.284
		c-14.534-6.243-27.97-15.2-39.489-26.702c-12.404-12.429-21.874-26.881-28.214-42.96c-6.877-17.623-26.767-26.255-44.358-19.346
		c-17.566,6.917-26.263,26.767-19.313,44.39c9.803,24.857,24.435,47.186,43.504,66.248c17.322,17.33,37.391,30.848,59.144,40.383
		c0.301,0.171,0.545,0.358,0.813,0.455c0.236,0.146,0.496,0.203,0.707,0.293c4.999,2.187,10.136,4.056,15.314,5.771
		c1.097,0.358,2.113,0.813,3.211,1.154c4.975,1.561,10.047,2.772,15.135,3.95c1.333,0.317,2.658,0.723,4.048,0.992
		c5.121,1.089,10.405,1.813,15.688,2.414c1.26,0.179,2.463,0.455,3.707,0.569c6.544,0.634,13.12,1.032,19.793,1.032
		c0.358,0,0.691-0.073,1.049-0.073c5.527-0.033,10.99-0.325,16.387-0.813c1.788-0.154,3.601-0.366,5.406-0.577
		c4.17-0.504,8.299-1.105,12.396-1.845c1.723-0.293,3.406-0.626,5.105-0.984c5.243-1.065,10.437-2.357,15.509-3.894
		c0.358-0.057,0.658-0.163,1.024-0.236c5.82-1.756,11.591-3.869,17.2-6.153l1.325-0.585c5.373-2.219,10.616-4.731,15.753-7.446
		c0.268-0.154,0.545-0.301,0.845-0.455c22.809-12.193,43.09-28.783,59.509-49.21l30.539,30.531
		c15.664,15.696,28.45,10.372,28.45-11.762v-87.187C421.011,242.801,402.901,224.706,380.783,224.706z"/>
</g>
<g>
</g>
<g>
</g>
<g>
</g>
<g>
</g>
<g>
</g>
<g>
</g>
<g>
</g>
<g>
</g>
<g>
</g>
<g>
</g>
<g>
</g>
<g>
</g>
<g>
</g>
<g>
</g>
<g>
</g>
</svg>
