<?xml version="1.0" encoding="iso-8859-1"?>
<!-- Generator: Adobe Illustrator 18.1.1, SVG Export Plug-In . SVG Version: 6.00 Build 0)  -->
<svg version="1.1" id="Capa_1" xmlns="http://www.w3.org/2000/svg" xmlns:xlink="http://www.w3.org/1999/xlink" x="0px" y="0px"
	 viewBox="0 0 392.968 392.968" style="enable-background:new 0 0 392.968 392.968;" xml:space="preserve">
<g>
	<path style="fill:#010002;" d="M57.798,40.578L43.841,286.565v65.76c0,22.451,18.192,40.643,40.643,40.643h223.999
		c22.451,0,40.643-18.192,40.643-40.643v-65.76L335.17,40.578C333.902,18.167,314.677,0,292.226,0H100.75
		C78.298,0,59.074,18.167,57.798,40.578z M274.644,294.116l-6.413,16.03c-1.674,4.17-6.657,7.551-11.152,7.551H141.921
		c-4.495,0-9.925-3.17-12.144-7.064l-9.649-16.997c-2.219-3.894-0.382-7.064,4.113-7.064h145.298
		C274.035,286.565,276.319,289.946,274.644,294.116z M107.48,52.145c0.317-4.487,4.211-8.112,8.698-8.112h165.62
		c4.495,0,8.348,3.633,8.624,8.112l12.225,200.199c0.268,4.479-3.146,8.112-7.633,8.112H100.937c-4.495,0-7.877-3.625-7.56-8.112
		L107.48,52.145z"/>
</g>
<g>
</g>
<g>
</g>
<g>
</g>
<g>
</g>
<g>
</g>
<g>
</g>
<g>
</g>
<g>
</g>
<g>
</g>
<g>
</g>
<g>
</g>
<g>
</g>
<g>
</g>
<g>
</g>
<g>
</g>
</svg>
