<?xml version="1.0" encoding="iso-8859-1"?>
<!-- Generator: Adobe Illustrator 18.1.1, SVG Export Plug-In . SVG Version: 6.00 Build 0)  -->
<svg version="1.1" id="Capa_1" xmlns="http://www.w3.org/2000/svg" xmlns:xlink="http://www.w3.org/1999/xlink" x="0px" y="0px"
	 viewBox="0 0 387.619 387.619" style="enable-background:new 0 0 387.619 387.619;" xml:space="preserve">
<g>
	<path style="fill:#010002;" d="M85.496,387.619h216.627c23.532,0,42.708-19.143,42.708-42.708v-76.214V42.724
		C344.83,19.151,325.655,0,302.123,0H141.275h-55.77C61.956,0,42.789,19.143,42.789,42.724v302.188
		C42.781,368.476,61.948,387.619,85.496,387.619z M91.967,57.355c0-3.17,2.585-5.796,5.771-5.796h84.22
		c3.178,0,5.771,2.626,5.771,5.796v120.498c0,3.138-2.601,5.731-5.771,5.731h-84.22c-3.195,0-5.771-2.593-5.771-5.731V57.355z
		 M100.827,231.225h184.657c5.625,0,10.201,4.593,10.201,10.234c0,5.649-4.576,10.201-10.201,10.201H100.827
		c-5.649,0-10.218-4.552-10.218-10.201C90.609,235.826,95.177,231.225,100.827,231.225z M100.827,274.055h184.657
		c5.625,0,10.201,4.585,10.201,10.226c0,5.649-4.576,10.226-10.201,10.226H100.827c-5.649,0-10.218-4.576-10.218-10.226
		C90.609,278.639,95.177,274.055,100.827,274.055z M100.827,316.876h184.657c5.625,0,10.201,4.593,10.201,10.234
		c0,5.633-4.576,10.201-10.201,10.201H100.827c-5.649,0-10.218-4.568-10.218-10.201C90.609,321.469,95.177,316.876,100.827,316.876z
		"/>
</g>
<g>
</g>
<g>
</g>
<g>
</g>
<g>
</g>
<g>
</g>
<g>
</g>
<g>
</g>
<g>
</g>
<g>
</g>
<g>
</g>
<g>
</g>
<g>
</g>
<g>
</g>
<g>
</g>
<g>
</g>
</svg>
