<?xml version="1.0" encoding="iso-8859-1"?>
<!-- Generator: Adobe Illustrator 18.1.1, SVG Export Plug-In . SVG Version: 6.00 Build 0)  -->
<svg version="1.1" id="Capa_1" xmlns="http://www.w3.org/2000/svg" xmlns:xlink="http://www.w3.org/1999/xlink" x="0px" y="0px"
	 viewBox="0 0 431.855 431.855" style="enable-background:new 0 0 431.855 431.855;" xml:space="preserve">
<g>
	<path style="fill:#010002;" d="M203.735,142.535c-4.081,1.642-7.462,3.593-10.071,5.877c-3.65,3.186-5.479,7.999-5.479,14.453
		c0,6.145,1.699,10.787,5.129,13.932c2.504,2.317,5.991,4.471,10.421,6.462V142.535z"/>
	<path style="fill:#010002;" d="M248.352,245.085c0-6.771-2.081-11.998-6.243-15.696c-3.357-2.975-8.072-5.576-13.997-7.82v48.365
		c5.747-1.756,10.388-4.487,13.819-8.299C246.206,256.904,248.352,251.376,248.352,245.085z"/>
	<path style="fill:#010002;" d="M215.936,431.855c119.279,0,215.911-96.706,215.911-216.041C431.847,96.592,335.206,0,215.936,0
		C96.722,0,0.008,96.592,0.008,215.814C0,335.149,96.722,431.855,215.936,431.855z M159.06,234.753
		c2.918-2.983,6.56-4.487,10.925-4.487c3.495,0,6.446,0.821,8.86,2.455c2.414,1.634,4.081,3.918,5.015,6.877
		c2.097,6.373,3.918,11.258,5.479,14.64c1.553,3.39,3.902,6.478,7.047,9.283c1.992,1.756,4.544,3.17,7.34,4.406v-53.762
		c-8.12-2.479-15.144-5.162-20.915-8.08c-6.999-3.544-12.672-8.576-17.037-15.103c-4.349-6.535-6.527-14.932-6.527-25.199
		c0-13.372,4.251-24.329,12.762-32.888c7.535-7.576,18.224-12.177,31.71-14.136v-14.607c0-6.73,5.462-12.193,12.193-12.193
		s12.193,5.462,12.193,12.193v14.534c6.381,0.959,12.201,2.325,17.029,4.406c5.934,2.569,11.128,6.454,15.574,11.664
		c3.495,3.967,6.194,8.047,8.096,12.25c1.902,4.211,2.861,8.047,2.861,11.543c0,3.894-1.414,7.251-4.251,10.096
		c-2.845,2.837-6.283,4.251-10.323,4.251c-7.625,0-12.559-4.121-14.81-12.364c-2.154-8.129-6.966-13.835-14.168-17.403v47.788
		c7.584,2.162,13.859,4.17,18.663,5.991c5.714,2.178,10.827,5.332,15.339,9.454c4.812,4.268,8.543,9.38,11.144,15.33
		c2.601,5.958,3.894,12.461,3.894,19.533c0,8.86-2.065,17.168-6.243,24.898c-4.162,7.73-10.291,14.054-18.371,18.956
		c-6.982,4.235-15.176,6.885-24.426,8.161v31.718c0,6.73-5.462,12.193-12.193,12.193c-6.73,0-12.193-5.462-12.193-12.193v-31.864
		c-6.877-1.179-13.233-2.861-18.647-5.454c-6.812-3.268-12.477-7.332-17.037-12.193c-4.544-4.861-7.909-9.909-10.079-15.16
		c-2.178-5.243-3.268-10.396-3.268-15.444C154.695,241.118,156.158,237.761,159.06,234.753z"/>
</g>
<g>
</g>
<g>
</g>
<g>
</g>
<g>
</g>
<g>
</g>
<g>
</g>
<g>
</g>
<g>
</g>
<g>
</g>
<g>
</g>
<g>
</g>
<g>
</g>
<g>
</g>
<g>
</g>
<g>
</g>
</svg>
