<?xml version="1.0" encoding="iso-8859-1"?>
<!-- Generator: Adobe Illustrator 18.1.1, SVG Export Plug-In . SVG Version: 6.00 Build 0)  -->
<svg version="1.1" id="Capa_1" xmlns="http://www.w3.org/2000/svg" xmlns:xlink="http://www.w3.org/1999/xlink" x="0px" y="0px"
	 viewBox="0 0 381.693 381.693" style="enable-background:new 0 0 381.693 381.693;" xml:space="preserve">
<g>
	<path style="fill:#010002;" d="M189.681,0c-14.119,0-25.573,11.453-25.573,25.572v167.806l-23.963-29.718
		c-12.079-14.981-31.108-19.663-42.529-10.461c-11.404,9.193-10.868,28.791,1.203,43.772l63.167,78.351
		c2.268,2.804,4.788,5.202,7.446,7.259c4.674,6.121,11.965,10.112,20.248,10.112c6.292,0,11.998-2.365,16.444-6.145
		c4.926-2.552,9.632-6.332,13.575-11.226l63.159-78.335c12.071-14.981,12.624-34.587,1.203-43.789
		c-11.404-9.202-30.441-4.519-42.512,10.47l-26.304,32.596V25.572C215.246,11.453,203.801,0,189.681,0z"/>
	<path style="fill:#010002;" d="M312.228,309.894h-242.5c-13.469,0-20.874,10.331-16.542,23.093l8.698,25.613
		c4.333,12.754,18.761,23.093,32.23,23.093h192.379c13.469,0,28.068-10.283,32.62-22.955l9.275-25.889
		C332.931,320.176,325.697,309.894,312.228,309.894z M263.993,353.918H117.678c-4.495,0-8.129-3.633-8.129-8.129
		s3.633-8.129,8.129-8.129h146.314c4.495,0,8.129,3.633,8.129,8.129S268.488,353.918,263.993,353.918z"/>
</g>
<g>
</g>
<g>
</g>
<g>
</g>
<g>
</g>
<g>
</g>
<g>
</g>
<g>
</g>
<g>
</g>
<g>
</g>
<g>
</g>
<g>
</g>
<g>
</g>
<g>
</g>
<g>
</g>
<g>
</g>
</svg>
