<?xml version="1.0" encoding="iso-8859-1"?>
<!-- Generator: Adobe Illustrator 18.1.1, SVG Export Plug-In . SVG Version: 6.00 Build 0)  -->
<svg version="1.1" id="Capa_1" xmlns="http://www.w3.org/2000/svg" xmlns:xlink="http://www.w3.org/1999/xlink" x="0px" y="0px"
	 viewBox="0 0 311.87 311.87" style="enable-background:new 0 0 311.87 311.87;" xml:space="preserve">
<g>
	<path style="fill:#010002;" d="M234.235,142.674c2.482,0,4.982-0.609,7.297-1.897c4.953-2.727,7.763-7.852,7.787-13.127
		c0.018-2.506-0.591-5.042-1.88-7.369l-54.824-95.261c-2.733-4.988-7.918-7.781-13.24-7.781c-2.47,0-4.958,0.591-7.274,1.862
		c-4.976,2.769-7.775,7.87-7.817,13.169c0,2.5,0.609,5.042,1.897,7.357l54.836,95.267
		C223.77,139.863,228.931,142.674,234.235,142.674z"/>
	<path style="fill:#010002;" d="M70.236,140.77c2.333,1.295,4.821,1.897,7.286,1.897c5.328,0,10.49-2.81,13.24-7.781l54.824-95.267
		c1.289-2.321,1.903-4.857,1.903-7.357c-0.048-5.299-2.846-10.4-7.817-13.169c-2.315-1.271-4.821-1.862-7.297-1.862
		c-5.334,0-10.49,2.792-13.223,7.781l-54.836,95.255c-1.289,2.333-1.892,4.863-1.874,7.369
		C62.485,132.924,65.289,138.044,70.236,140.77z"/>
	<path style="fill:#010002;" d="M296.715,121.366h-34.286c2.661,12.214-2.673,25.252-14.183,31.624
		c-4.296,2.351-9.129,3.604-14.01,3.604c-10.537,0-20.269-5.728-25.389-14.989c0.107,0.227-11.659-20.24-11.659-20.24h-82.593
		l-11.683,20.311c-5.191,9.237-14.869,14.911-25.389,14.911c-4.863,0-9.72-1.253-13.992-3.604
		c-6.784-3.759-11.713-9.941-13.861-17.376c-1.354-4.726-1.354-9.595-0.328-14.249H15.156C6.808,121.36,0,128.133,0,136.516
		c0,8.342,6.808,15.138,15.156,15.138h4.869c0.095,0.698,0.149,1.378,0.352,2.088l29.942,112.565
		c2.524,9.487,12.626,17.25,22.435,17.25h5.221c0,0,0,2.476,0,5.537c0,3.067,3.192,5.543,7.124,5.543h40.079
		c3.938,0,7.124-2.476,7.124-5.543v-5.537h51.661c0,0,0,2.476,0,5.537c0,3.067,3.192,5.543,7.124,5.543h40.079
		c3.938,0,7.124-2.476,7.124-5.543v-5.537h0.829c9.81,0,19.917-7.763,22.453-17.25l29.942-112.565
		c0.179-0.704,0.257-1.39,0.334-2.088h4.851c8.395,0,15.168-6.796,15.168-15.138C311.882,128.139,305.11,121.366,296.715,121.366z
		 M92.469,252.679c0,4.738-3.855,8.592-8.592,8.592c-4.762,0-8.61-3.855-8.61-8.592v-65.337c0-4.756,3.849-8.592,8.61-8.592
		c4.738,0,8.592,3.837,8.592,8.592V252.679z M140.526,252.679c0,4.738-3.855,8.592-8.61,8.592c-4.744,0-8.592-3.855-8.592-8.592
		v-65.337c0-4.756,3.855-8.592,8.592-8.592c4.762,0,8.61,3.837,8.61,8.592V252.679z M188.583,252.679
		c0,4.738-3.855,8.592-8.604,8.592c-4.762,0-8.61-3.855-8.61-8.592v-65.337c0-4.756,3.855-8.592,8.61-8.592
		c4.75,0,8.604,3.837,8.604,8.592V252.679z M236.64,252.679c0,4.738-3.861,8.592-8.61,8.592c-4.744,0-8.604-3.855-8.604-8.592
		v-65.337c0-4.756,3.861-8.592,8.604-8.592c4.75,0,8.61,3.837,8.61,8.592V252.679z"/>
</g>
<g>
</g>
<g>
</g>
<g>
</g>
<g>
</g>
<g>
</g>
<g>
</g>
<g>
</g>
<g>
</g>
<g>
</g>
<g>
</g>
<g>
</g>
<g>
</g>
<g>
</g>
<g>
</g>
<g>
</g>
</svg>
