<?xml version="1.0" encoding="iso-8859-1"?>
<!-- Generator: Adobe Illustrator 18.1.1, SVG Export Plug-In . SVG Version: 6.00 Build 0)  -->
<svg version="1.1" id="Capa_1" xmlns="http://www.w3.org/2000/svg" xmlns:xlink="http://www.w3.org/1999/xlink" x="0px" y="0px"
	 viewBox="0 0 360.47 360.47" style="enable-background:new 0 0 360.47 360.47;" xml:space="preserve">
<g>
	<path style="fill:#010002;" d="M303.314,360.47c4.487,0,10.697-2.577,13.875-5.747l37.53-37.603
		c3.17-3.178,5.747-9.388,5.747-13.884V42.911C360.466,19.216,341.25,0,317.587,0h-63.59v67.345h15.542
		c4.487,0,8.129,2.219,8.129,4.967c0,1.536,0,3.276,0,4.967c0,4.487-3.642,8.12-8.129,8.12H90.898c-4.487,0-8.129-3.642-8.129-8.129
		v-1.845c0-4.487,3.642-8.096,8.129-8.088c6.844,0.008,15.542,0.008,15.542,0.008V0H42.882C19.188,0,0.004,19.216,0.004,42.911
		v274.697c0,23.67,19.192,42.854,42.878,42.854h36.465V255.823c0-16.794,13.656-30.433,30.417-30.433h140.909
		c16.785,0,30.417,13.64,30.417,30.433V360.47H303.314z"/>
	<path style="fill:#010002;" d="M213.639,245.946c-3.39,0-6.161,2.78-6.161,6.202v86.716c0,3.414,2.764,6.226,6.161,6.226h41.456
		c3.406,0,6.17-2.804,6.17-6.226v-86.716c0-3.422-2.764-6.202-6.17-6.202H213.639z"/>
	<path style="fill:#010002;" d="M223.954,10.819h-95.243c-5.649,0-10.218,4.593-10.218,10.234c0,5.649,4.568,10.201,10.218,10.201
		h95.243c5.625,0,10.201-4.552,10.201-10.201C234.164,15.42,229.579,10.819,223.954,10.819z"/>
	<path style="fill:#010002;" d="M223.954,47.203h-95.243c-5.649,0-10.218,4.601-10.218,10.234c0,5.649,4.568,10.201,10.218,10.201
		h95.243c5.625,0,10.201-4.552,10.201-10.201C234.164,51.795,229.579,47.203,223.954,47.203z"/>
</g>
<g>
</g>
<g>
</g>
<g>
</g>
<g>
</g>
<g>
</g>
<g>
</g>
<g>
</g>
<g>
</g>
<g>
</g>
<g>
</g>
<g>
</g>
<g>
</g>
<g>
</g>
<g>
</g>
<g>
</g>
</svg>
