<?xml version="1.0" encoding="iso-8859-1"?>
<!-- Generator: Adobe Illustrator 18.1.1, SVG Export Plug-In . SVG Version: 6.00 Build 0)  -->
<svg version="1.1" id="Capa_1" xmlns="http://www.w3.org/2000/svg" xmlns:xlink="http://www.w3.org/1999/xlink" x="0px" y="0px"
	 viewBox="0 0 401.08 401.08" style="enable-background:new 0 0 401.08 401.08;" xml:space="preserve">
<g>
	<path style="fill:#010002;" d="M65.13,0H61.7c-8.502,0-15.412,6.909-15.412,15.404v370.24c0,8.535,6.909,15.436,15.412,15.436h3.43
		c8.511,0,15.42-6.909,15.42-15.436v-166.27h165.392c-35.693-71.475-19.5-149.525-3.747-195.403H80.542v-8.576
		C80.542,6.901,73.641,0,65.13,0z"/>
	<path style="fill:#010002;" d="M330.406,219.374c13.461,0,24.386-10.917,24.386-24.386V48.357
		c0-13.469-10.925-24.386-24.386-24.386h-62.761c-16.184,42.155-37.009,123.847,5.95,195.403H330.406z"/>
</g>
<g>
</g>
<g>
</g>
<g>
</g>
<g>
</g>
<g>
</g>
<g>
</g>
<g>
</g>
<g>
</g>
<g>
</g>
<g>
</g>
<g>
</g>
<g>
</g>
<g>
</g>
<g>
</g>
<g>
</g>
</svg>
