<?xml version="1.0" encoding="iso-8859-1"?>
<!-- Generator: Adobe Illustrator 18.1.1, SVG Export Plug-In . SVG Version: 6.00 Build 0)  -->
<svg version="1.1" id="Capa_1" xmlns="http://www.w3.org/2000/svg" xmlns:xlink="http://www.w3.org/1999/xlink" x="0px" y="0px"
	 viewBox="0 0 387.619 387.619" style="enable-background:new 0 0 387.619 387.619;" xml:space="preserve">
<g>
	<path style="fill:#010002;" d="M299.298,6.161C296.372,2.756,290.349,0,285.862,0H141.271H85.5
		C61.952,0,42.785,19.151,42.785,42.724v302.188c0,23.565,19.167,42.708,42.716,42.708h216.627
		c23.532,0,42.708-19.143,42.708-42.708V268.69V67.101c0-4.495-2.374-10.884-5.308-14.29L299.298,6.161z M286.138,312.601H101.481
		c-5.649,0-10.218-4.552-10.218-10.201c0-5.633,4.568-10.242,10.218-10.242h184.657c5.625,0,10.201,4.601,10.201,10.242
		C296.348,308.049,291.763,312.601,286.138,312.601z M286.138,226.234H101.481c-5.649,0-10.218-4.552-10.218-10.201
		c0-5.633,4.568-10.242,10.218-10.242h184.657c5.625,0,10.201,4.601,10.201,10.242C296.348,221.682,291.763,226.234,286.138,226.234
		z M286.138,139.868H101.481c-5.649,0-10.218-4.544-10.218-10.201c0-5.633,4.568-10.242,10.218-10.242h184.657
		c5.625,0,10.201,4.601,10.201,10.242C296.348,135.316,291.763,139.868,286.138,139.868z M319.254,71.905h-36.221
		c-5.162,0-9.348-4.186-9.348-9.34V22.069c0-5.17,2.845-6.275,6.357-2.495l42.195,45.479
		C325.749,68.849,324.415,71.905,319.254,71.905z"/>
</g>
<g>
</g>
<g>
</g>
<g>
</g>
<g>
</g>
<g>
</g>
<g>
</g>
<g>
</g>
<g>
</g>
<g>
</g>
<g>
</g>
<g>
</g>
<g>
</g>
<g>
</g>
<g>
</g>
<g>
</g>
</svg>
