<?xml version="1.0" encoding="iso-8859-1"?>
<!-- Generator: Adobe Illustrator 18.1.1, SVG Export Plug-In . SVG Version: 6.00 Build 0)  -->
<svg version="1.1" id="Capa_1" xmlns="http://www.w3.org/2000/svg" xmlns:xlink="http://www.w3.org/1999/xlink" x="0px" y="0px"
	 viewBox="0 0 397.569 397.569" style="enable-background:new 0 0 397.569 397.569;" xml:space="preserve">
<g>
	<path style="fill:#010002;" d="M15.306,346.147h366.956c8.437,0,15.306-6.861,15.306-15.306c0-8.446-6.869-15.306-15.306-15.306
		H30.588V143.112c0-8.429-6.852-15.282-15.282-15.282C6.869,127.83,0,134.682,0,143.112v187.738
		C0,339.287,6.869,346.147,15.306,346.147z"/>
	<path style="fill:#010002;" d="M162.954,160.897c-15.111,0-27.369,12.25-27.369,27.369v79.823c0,15.111,12.25,27.369,27.369,27.369
		h4.072c15.111,0,27.369-12.25,27.369-27.369v-79.823c0-15.111-12.258-27.369-27.369-27.369H162.954z"/>
	<path style="fill:#010002;" d="M256.733,115.279h-4.072c-15.111,0-27.369,12.258-27.369,27.369v125.44
		c0,15.111,12.25,27.369,27.369,27.369h4.072c15.111,0,27.369-12.25,27.369-27.369v-125.44
		C284.102,127.537,271.852,115.279,256.733,115.279z"/>
	<path style="fill:#010002;" d="M346.44,51.421h-4.072c-15.111,0-27.369,12.25-27.369,27.369v189.298
		c0,15.111,12.25,27.369,27.369,27.369h4.072c15.111,0,27.369-12.25,27.369-27.369V78.79
		C373.817,63.679,361.559,51.421,346.44,51.421z"/>
	<path style="fill:#010002;" d="M78.652,193.582c-15.111,0-27.369,12.258-27.369,27.369v47.138
		c0,15.111,12.258,27.369,27.369,27.369h4.072c15.111,0,27.369-12.25,27.369-27.369v-47.138c0-15.111-12.258-27.369-27.369-27.369
		H78.652z"/>
</g>
<g>
</g>
<g>
</g>
<g>
</g>
<g>
</g>
<g>
</g>
<g>
</g>
<g>
</g>
<g>
</g>
<g>
</g>
<g>
</g>
<g>
</g>
<g>
</g>
<g>
</g>
<g>
</g>
<g>
</g>
</svg>
