<?xml version="1.0" encoding="iso-8859-1"?>
<!-- Generator: Adobe Illustrator 18.1.1, SVG Export Plug-In . SVG Version: 6.00 Build 0)  -->
<svg version="1.1" id="Capa_1" xmlns="http://www.w3.org/2000/svg" xmlns:xlink="http://www.w3.org/1999/xlink" x="0px" y="0px"
	 viewBox="0 0 394.447 394.447" style="enable-background:new 0 0 394.447 394.447;" xml:space="preserve">
<g>
	<path style="fill:#010002;" d="M107.947,305.171c0,49.308,39.976,89.276,89.276,89.276s89.276-39.968,89.276-89.276
		c0-27.044-12.071-51.218-31.059-67.597c0.033-0.837,0.13-1.666,0.13-2.512V19.858c0-3.633,2.926-6.576,6.576-6.576
		c3.658,0,6.609-2.975,6.609-6.641c0-3.642-2.951-6.641-7.047-6.641H131.87c-3.227,0-6.178,2.999-6.178,6.641
		c0,3.666,2.951,6.641,6.625,6.641c3.625,0,6.584,2.943,6.584,6.576V235.07c0,0.845,0.089,1.658,0.13,2.504
		C120.027,253.929,107.947,278.119,107.947,305.171z M216.944,39.928c3.674,0,6.665,3.008,6.665,6.682
		c0,3.682-2.991,6.674-6.665,6.674c-3.674,0-6.665-2.999-6.665-6.674C210.27,42.935,213.269,39.928,216.944,39.928z M216.944,66.435
		c3.674,0,6.665,2.983,6.665,6.682c0,3.69-2.991,6.665-6.665,6.665c-3.674,0-6.665-2.983-6.665-6.665
		C210.27,69.418,213.269,66.435,216.944,66.435z M216.944,92.999c3.674,0,6.665,2.999,6.665,6.674c0,3.699-2.991,6.674-6.665,6.674
		c-3.674,0-6.665-2.975-6.665-6.674C210.27,96.007,213.269,92.999,216.944,92.999z M172.838,263.837V153.963
		c0-13.469,10.917-24.386,24.386-24.386c13.469,0,24.386,10.917,24.386,24.386v109.874c15.737,8.633,26.418,25.353,26.418,44.569
		c0,28.06-22.744,50.804-50.804,50.804s-50.804-22.744-50.804-50.804C146.42,289.19,157.093,272.47,172.838,263.837z"/>
</g>
<g>
</g>
<g>
</g>
<g>
</g>
<g>
</g>
<g>
</g>
<g>
</g>
<g>
</g>
<g>
</g>
<g>
</g>
<g>
</g>
<g>
</g>
<g>
</g>
<g>
</g>
<g>
</g>
<g>
</g>
</svg>
