<?xml version="1.0" encoding="iso-8859-1"?>
<!-- Generator: Adobe Illustrator 18.1.1, SVG Export Plug-In . SVG Version: 6.00 Build 0)  -->
<svg version="1.1" id="Capa_1" xmlns="http://www.w3.org/2000/svg" xmlns:xlink="http://www.w3.org/1999/xlink" x="0px" y="0px"
	 viewBox="0 0 417.264 417.264" style="enable-background:new 0 0 417.264 417.264;" xml:space="preserve">
<g>
	<path style="fill:#010002;" d="M40.643,353.617h335.978c22.443,0,40.643-18.192,40.643-40.643V104.29
		c0-22.451-18.2-40.643-40.643-40.643H40.643C18.2,63.647,0,81.838,0,104.29v208.685C0,335.426,18.2,353.617,40.643,353.617z
		 M346.83,300.123H64.63c-5.649,0-10.218-4.544-10.218-10.201c0-5.633,4.568-10.242,10.218-10.242h282.2
		c5.625,0,10.201,4.601,10.201,10.242C357.04,295.571,352.455,300.123,346.83,300.123z M346.83,247.767H64.63
		c-5.649,0-10.218-4.552-10.218-10.201c0-5.633,4.568-10.242,10.218-10.242h282.2c5.625,0,10.201,4.601,10.201,10.242
		C357.04,243.215,352.455,247.767,346.83,247.767z M145.916,120.636H346.83c5.625,0,10.201,4.601,10.201,10.242
		c0,5.649-4.576,10.201-10.201,10.201H145.916c-5.649,0-10.218-4.552-10.218-10.201
		C135.698,125.237,140.267,120.636,145.916,120.636z M145.916,172.992H346.83c5.625,0,10.201,4.601,10.201,10.242
		c0,5.649-4.576,10.201-10.201,10.201H145.916c-5.649,0-10.218-4.544-10.218-10.201
		C135.698,177.601,140.267,172.992,145.916,172.992z M80.611,120.636c9.543,0,17.281,7.747,17.281,17.298
		c0,9.543-7.738,17.289-17.281,17.289c-9.551,0-17.289-7.747-17.289-17.289C63.322,128.383,71.06,120.636,80.611,120.636z
		 M52.356,201.231l2.674-11.559c0.602-2.609,1.04-6.926,1.561-9.559c2.243-11.209,12.144-19.655,24.02-19.655
		c11.868,0,21.768,8.446,24.012,19.655c0.528,2.626,0.959,6.942,1.561,9.559l2.674,11.559c0.602,2.617-1.081,4.739-3.764,4.739
		H56.128C53.445,205.97,51.763,203.848,52.356,201.231z"/>
</g>
<g>
</g>
<g>
</g>
<g>
</g>
<g>
</g>
<g>
</g>
<g>
</g>
<g>
</g>
<g>
</g>
<g>
</g>
<g>
</g>
<g>
</g>
<g>
</g>
<g>
</g>
<g>
</g>
<g>
</g>
</svg>
