<?xml version="1.0" encoding="iso-8859-1"?>
<!-- Generator: Adobe Illustrator 18.1.1, SVG Export Plug-In . SVG Version: 6.00 Build 0)  -->
<svg version="1.1" id="Capa_1" xmlns="http://www.w3.org/2000/svg" xmlns:xlink="http://www.w3.org/1999/xlink" x="0px" y="0px"
	 viewBox="0 0 431.855 431.855" style="enable-background:new 0 0 431.855 431.855;" xml:space="preserve">
<g>
	<path style="fill:#010002;" d="M215.932,0C96.726,0,0.012,96.592,0.012,215.814c0,119.336,96.714,216.041,215.919,216.041
		c119.279,0,215.911-96.706,215.911-216.041C431.843,96.592,335.202,0,215.932,0z M215.923,85.374
		c12.323,0,22.313,9.99,22.313,22.313S228.246,130,215.923,130c-12.331,0-22.297-9.99-22.297-22.313
		C193.619,95.356,203.592,85.374,215.923,85.374z M238.253,313.974c0,13.469-9.99,24.386-22.313,24.386
		c-12.323,0-22.313-10.917-22.313-24.386V177.349c0-13.469,9.99-24.386,22.313-24.386c12.323,0,22.313,10.917,22.313,24.386V313.974
		z"/>
</g>
<g>
</g>
<g>
</g>
<g>
</g>
<g>
</g>
<g>
</g>
<g>
</g>
<g>
</g>
<g>
</g>
<g>
</g>
<g>
</g>
<g>
</g>
<g>
</g>
<g>
</g>
<g>
</g>
<g>
</g>
</svg>
