<?xml version="1.0" encoding="iso-8859-1"?>
<!-- Generator: Adobe Illustrator 18.1.1, SVG Export Plug-In . SVG Version: 6.00 Build 0)  -->
<svg version="1.1" id="Capa_1" xmlns="http://www.w3.org/2000/svg" xmlns:xlink="http://www.w3.org/1999/xlink" x="0px" y="0px"
	 viewBox="0 0 449.787 449.787" style="enable-background:new 0 0 449.787 449.787;" xml:space="preserve">
<g>
	<path style="fill:#010002;" d="M426.303,284.553V81.843c0-21.086-13.892-38.18-31.027-38.18h-31.019H85.529c0,0-13.884,0-31.019,0
		s-31.027,17.094-31.027,38.18v202.719c0,2.479,0.276,4.885,0.732,7.234L0,379.365c0,0,0,5.991,0,13.38s7.283,13.38,16.257,13.38
		h417.272c8.974,0,16.257-5.991,16.257-13.38v-13.38l-24.215-87.561C426.027,289.446,426.303,287.04,426.303,284.553z
		 M379.019,267.678c0,3.365-4.731,6.08-10.567,6.08H81.335c-5.836,0-10.567-2.715-10.567-6.08V90.719
		c0-3.357,4.731-6.08,10.567-6.08h287.117c5.836,0,10.567,2.723,10.567,6.08V267.678z"/>
</g>
<g>
</g>
<g>
</g>
<g>
</g>
<g>
</g>
<g>
</g>
<g>
</g>
<g>
</g>
<g>
</g>
<g>
</g>
<g>
</g>
<g>
</g>
<g>
</g>
<g>
</g>
<g>
</g>
<g>
</g>
</svg>
