<?xml version="1.0" encoding="iso-8859-1"?>
<!-- Generator: Adobe Illustrator 18.1.1, SVG Export Plug-In . SVG Version: 6.00 Build 0)  -->
<svg version="1.1" id="Capa_1" xmlns="http://www.w3.org/2000/svg" xmlns:xlink="http://www.w3.org/1999/xlink" x="0px" y="0px"
	 viewBox="0 0 395.78 395.78" style="enable-background:new 0 0 395.78 395.78;" xml:space="preserve">
<g>
	<g>
		<path style="fill:#010002;" d="M184.291,30.445l-47.162-0.057c-12.453,0-22.549,10.071-22.557,22.581l-0.163,289.792
			c0,12.445,10.079,22.606,22.557,22.606l47.129,0.024c12.485,0,22.597-10.112,22.597-22.549l0.154-289.816
			C206.889,40.566,196.768,30.445,184.291,30.445z M179.788,331.951l-38.261,0.041c-4.357,0-7.925-3.56-7.925-7.917
			c0.008-4.357,3.552-7.925,7.933-7.925l38.269,0.049c4.349,0,7.909,3.56,7.909,7.909
			C187.713,328.472,184.169,331.951,179.788,331.951z M179.829,105.139l-38.261-0.024c-4.357,0-7.925-3.56-7.925-7.925
			s3.568-7.917,7.925-7.917l38.261-0.041c4.357,0,7.909,3.633,7.909,7.99C187.721,101.57,184.185,105.139,179.829,105.139z"/>
		<path style="fill:#010002;" d="M69.849,30.437L22.744,30.38c-12.477,0-22.597,10.071-22.622,22.581L0,342.77
			c-0.033,12.445,10.071,22.606,22.524,22.606l47.113,0.024c12.494,0,22.622-10.112,22.638-22.549l0.122-289.816
			C92.43,40.557,82.334,30.437,69.849,30.437z M65.394,331.951l-38.277,0.041c-4.341,0-7.917-3.56-7.917-7.917
			c0.024-4.357,3.56-7.925,7.925-7.925l38.269,0.049c4.357,0,7.893,3.56,7.893,7.909C73.295,328.472,69.743,331.951,65.394,331.951z
			 M65.394,105.139l-38.245-0.024c-4.349,0-7.901-3.56-7.901-7.925s3.552-7.917,7.901-7.917l38.245-0.041
			c4.365,0,7.901,3.633,7.901,7.99C73.295,101.57,69.743,105.139,65.394,105.139z"/>
		<path style="fill:#010002;" d="M248.417,62.228c-1.561-7.186-8.649-11.746-15.843-10.169c-7.186,1.561-11.738,8.657-10.177,15.843
			l61.988,284.208c1.561,7.186,8.657,11.738,15.843,10.185c7.186-1.569,11.746-8.665,10.177-15.851L248.417,62.228z"/>
		<path style="fill:#010002;" d="M395.471,327.886L333.483,43.671c-1.561-7.186-8.657-11.738-15.843-10.169
			c-7.186,1.569-11.746,8.657-10.177,15.843l61.989,284.216c1.561,7.186,8.657,11.73,15.843,10.169
			C392.472,342.16,397.04,335.072,395.471,327.886z"/>
		<path style="fill:#010002;" d="M270.909,49.987c-0.723-3.316-3.991-5.422-7.308-4.698s-5.422,3.999-4.698,7.316l65.037,298.221
			c0.732,3.316,3.999,5.414,7.308,4.698c3.325-0.732,5.422-4.007,4.698-7.316L270.909,49.987z"/>
		<path style="fill:#010002;" d="M292.247,45.329c-0.723-3.316-3.991-5.422-7.308-4.698c-3.308,0.723-5.414,3.999-4.698,7.308
			l65.045,298.229c0.723,3.308,3.991,5.414,7.308,4.682c3.316-0.723,5.422-3.991,4.69-7.308L292.247,45.329z"/>
	</g>
</g>
<g>
</g>
<g>
</g>
<g>
</g>
<g>
</g>
<g>
</g>
<g>
</g>
<g>
</g>
<g>
</g>
<g>
</g>
<g>
</g>
<g>
</g>
<g>
</g>
<g>
</g>
<g>
</g>
<g>
</g>
</svg>
