<?xml version="1.0" encoding="iso-8859-1"?>
<!-- Generator: Adobe Illustrator 18.1.1, SVG Export Plug-In . SVG Version: 6.00 Build 0)  -->
<svg version="1.1" id="Capa_1" xmlns="http://www.w3.org/2000/svg" xmlns:xlink="http://www.w3.org/1999/xlink" x="0px" y="0px"
	 viewBox="0 0 428.717 428.717" style="enable-background:new 0 0 428.717 428.717;" xml:space="preserve">
<g>
	<path style="fill:#010002;" d="M214.37,173.74c47.959,0,86.854-38.911,86.854-86.829C301.223,38.911,262.328,0,214.37,0
		c-47.991,0-86.846,38.911-86.846,86.911C127.524,134.829,166.378,173.74,214.37,173.74z"/>
	<path style="fill:#010002;" d="M85.849,346.838l-13.412,58.119c-3.024,13.128,5.43,23.76,18.899,23.76h246.044
		c13.469,0,21.931-10.64,18.899-23.76l-13.412-58.119c-3.032-13.128-5.235-34.782-7.868-47.991
		c-11.25-56.339-60.972-98.754-120.62-98.754c-59.631,0-109.394,42.423-120.652,98.754
		C91.075,312.048,88.873,333.711,85.849,346.838z"/>
</g>
<g>
</g>
<g>
</g>
<g>
</g>
<g>
</g>
<g>
</g>
<g>
</g>
<g>
</g>
<g>
</g>
<g>
</g>
<g>
</g>
<g>
</g>
<g>
</g>
<g>
</g>
<g>
</g>
<g>
</g>
</svg>
