<?xml version="1.0" encoding="iso-8859-1"?>
<!-- Generator: Adobe Illustrator 18.1.1, SVG Export Plug-In . SVG Version: 6.00 Build 0)  -->
<svg version="1.1" id="Capa_1" xmlns="http://www.w3.org/2000/svg" xmlns:xlink="http://www.w3.org/1999/xlink" x="0px" y="0px"
	 viewBox="0 0 259.076 259.076" style="enable-background:new 0 0 259.076 259.076;" xml:space="preserve">
<g>
	<path style="fill:#010002;" d="M190.486,240.363c-0.078-0.018-0.155-0.054-0.233-0.066
		C190.331,240.31,190.409,240.345,190.486,240.363z"/>
	<path style="fill:#010002;" d="M129.547,2.542C58.028,2.542,0,47.681,0,103.34c0,47.914,42.991,87.886,100.53,98.179
		c14.344,34.494,48.922,57.121,87.862,54.859c0.054,0,0.137,0,0.215,0c0.161-0.024,0.268,0,0.459,0
		c-0.084,0-0.155-0.024-0.215-0.024c2.972-0.131,5.8-1.832,7.107-4.684c1.856-4.034,0.161-8.771-3.753-10.728
		c-0.543-0.268-1.122-0.442-1.712-0.579c-0.078-0.018-0.155-0.054-0.233-0.066c-0.65-0.125-1.313-0.185-1.975-0.167
		c0.656-0.03,1.313,0.036,1.975,0.167c0.078,0.018,0.155,0.048,0.233,0.066c0.412,0.095,0.829,0.185,1.247,0.364
		c-16.117-6.862-27.388-21.242-30.085-38.498c-0.107-0.442-0.107-0.871-0.131-1.313c56.059-11.057,97.552-50.533,97.552-97.582
		C259.064,47.681,201.072,2.542,129.547,2.542z M184.895,255.531c0,0,0,0-0.054,0c-0.054-0.024-0.054-0.054-0.101-0.084
		C184.794,255.477,184.842,255.507,184.895,255.531z M93.465,65.576h74.598c4.404,0,7.99,3.604,7.99,8.019
		c0,4.427-3.586,7.99-7.99,7.99H93.465c-4.421,0-8.008-3.562-8.008-7.99C85.458,69.186,89.044,65.576,93.465,65.576z
		 M215.81,129.535H45.712c-4.421,0-8.002-3.562-8.002-7.99c0-4.415,3.58-8.019,8.002-8.019H215.81c4.404,0,7.996,3.604,7.996,8.019
		C223.805,125.972,220.213,129.535,215.81,129.535z"/>
</g>
<g>
</g>
<g>
</g>
<g>
</g>
<g>
</g>
<g>
</g>
<g>
</g>
<g>
</g>
<g>
</g>
<g>
</g>
<g>
</g>
<g>
</g>
<g>
</g>
<g>
</g>
<g>
</g>
<g>
</g>
</svg>
