<?xml version="1.0" encoding="iso-8859-1"?>
<!-- Generator: Adobe Illustrator 18.1.1, SVG Export Plug-In . SVG Version: 6.00 Build 0)  -->
<svg version="1.1" id="Capa_1" xmlns="http://www.w3.org/2000/svg" xmlns:xlink="http://www.w3.org/1999/xlink" x="0px" y="0px"
	 viewBox="0 0 371.801 371.801" style="enable-background:new 0 0 371.801 371.801;" xml:space="preserve">
<g>
	<path style="fill:#010002;" d="M104.712,352.024H91.04c-4.284,0-7.738,3.479-7.738,7.738v4.284c0,4.284,3.455,7.755,7.738,7.755
		h189.737c4.284,0,7.722-3.471,7.722-7.755v-4.284c0-4.259-3.438-7.738-7.722-7.738h-13.672l-61.2-20.842v-65.866
		c44.195-9.258,77.473-48.503,77.473-95.397c0-6.251-5.08-11.307-11.364-11.307c-1.65,0-3.227,0.374-4.65,1
		c-3.926,1.796-6.682,5.723-6.682,10.307c0,41.244-33.563,74.775-74.791,74.775c-41.244,0-74.758-33.53-74.758-74.775
		c0-4.593-2.772-8.511-6.73-10.307c-1.398-0.626-2.999-1-4.65-1c-6.259,0-11.315,5.056-11.315,11.307
		c0,46.902,33.287,86.147,77.425,95.397v65.874L104.712,352.024z"/>
	<path style="fill:#010002;" d="M127.123,58.761v111.012c0,32.482,26.296,58.802,58.77,58.802c32.449,0,58.802-26.32,58.802-58.802
		V58.761c0-20.85-10.965-39.066-27.353-49.495v46.544c0,5.503-4.479,10.006-10.006,10.006c-5.552,0-10.031-4.511-10.031-10.006
		V1.154C193.598,0.455,189.794,0,185.9,0c-3.918,0-7.714,0.455-11.421,1.154v54.657c0,5.503-4.454,10.006-9.998,10.006
		c-5.536,0-10.006-4.511-10.006-10.006V9.267C138.031,19.696,127.123,37.912,127.123,58.761z"/>
</g>
<g>
</g>
<g>
</g>
<g>
</g>
<g>
</g>
<g>
</g>
<g>
</g>
<g>
</g>
<g>
</g>
<g>
</g>
<g>
</g>
<g>
</g>
<g>
</g>
<g>
</g>
<g>
</g>
<g>
</g>
</svg>
