<?xml version="1.0" encoding="iso-8859-1"?>
<!-- Generator: Adobe Illustrator 18.1.1, SVG Export Plug-In . SVG Version: 6.00 Build 0)  -->
<svg version="1.1" id="Capa_1" xmlns="http://www.w3.org/2000/svg" xmlns:xlink="http://www.w3.org/1999/xlink" x="0px" y="0px"
	 viewBox="0 0 422.512 422.512" style="enable-background:new 0 0 422.512 422.512;" xml:space="preserve">
<g>
	<path style="fill:#010002;" d="M421.761,377.188v-23.735c0-10.323-8.381-18.72-18.712-18.72h-54.526h-30.702H19.453
		c-10.291,0-18.696,8.397-18.696,18.72v23.735c0,10.299,8.405,18.663,18.696,18.663h298.367h30.702h54.535
		C413.38,395.851,421.761,387.487,421.761,377.188z"/>
	<path style="fill:#010002;" d="M11.918,113.245h398.65c5.893,0,10.909-4.276,11.803-10.136c0.902-5.779-2.593-11.413-8.226-13.144
		L214.872,27.228c-2.325-0.756-4.837-0.756-7.153,0L8.333,89.964c-5.617,1.731-9.088,7.373-8.194,13.144
		C1.034,108.969,6.033,113.245,11.918,113.245z"/>
	<path style="fill:#010002;" d="M213.295,314.549c15.111,0,27.369-12.25,27.369-27.369V161.74c0-15.111-12.258-27.369-27.369-27.369
		h-4.072c-15.111,0-27.369,12.258-27.369,27.369v125.44c0,15.111,12.25,27.369,27.369,27.369H213.295z"/>
	<path style="fill:#010002;" d="M356.318,314.549c15.111,0,27.369-12.25,27.369-27.369V161.74c0-15.111-12.258-27.369-27.369-27.369
		h-4.072c-15.111,0-27.369,12.258-27.369,27.369v125.44c0,15.111,12.25,27.369,27.369,27.369H356.318z"/>
	<path style="fill:#010002;" d="M75.11,319.727c15.111,0,27.369-12.25,27.369-27.369V166.926c0-15.111-12.258-27.369-27.369-27.369
		h-4.081c-15.111,0-27.369,12.258-27.369,27.369v125.44c0,15.111,12.25,27.369,27.369,27.369h4.081V319.727z"/>
</g>
<g>
</g>
<g>
</g>
<g>
</g>
<g>
</g>
<g>
</g>
<g>
</g>
<g>
</g>
<g>
</g>
<g>
</g>
<g>
</g>
<g>
</g>
<g>
</g>
<g>
</g>
<g>
</g>
<g>
</g>
</svg>
