<?xml version="1.0" encoding="iso-8859-1"?>
<!-- Generator: Adobe Illustrator 18.1.1, SVG Export Plug-In . SVG Version: 6.00 Build 0)  -->
<svg version="1.1" id="Capa_1" xmlns="http://www.w3.org/2000/svg" xmlns:xlink="http://www.w3.org/1999/xlink" x="0px" y="0px"
	 viewBox="0 0 452.009 452.009" style="enable-background:new 0 0 452.009 452.009;" xml:space="preserve">
<g>
	<path style="fill:#010002;" d="M118.966,127.874c-0.041,69.174,21.793,129.553,54.226,162.084
		c4.024,4.024,8.738,6.739,14.062,7.243c9.372,1.162,27.58,1.666,37.879,1.666c10.331,0.008,28.499-0.496,37.887-1.642
		c5.332-0.545,10.063-3.211,14.103-7.251c32.401-32.539,54.226-92.942,54.226-162.084c0.008-0.244-0.008-0.48-0.016-0.715
		c-0.033-0.398-3.666-0.715-8.161-0.715l-70.621-0.016l0.049,16.818c-0.016,15.127-12.29,27.442-27.426,27.426
		c-15.144,0.016-27.418-12.258-27.418-27.377l-0.016-16.859l-70.621,0.008c-4.487,0-8.145,0.317-8.153,0.715
		C118.958,127.411,118.958,127.638,118.966,127.874z"/>
	<path style="fill:#010002;" d="M206.723,0.109c-45.406,7.763-80.554,43.764-85.578,90.17c-0.293,2.544-0.553,5.121-0.788,7.722
		c-0.374,4.259,3.056,7.738,7.551,7.738l69.808-0.008L197.7,83.809c0.024-11.746,7.438-21.679,17.785-25.572
		c-0.398-1.146-0.691-2.309-0.707-3.552V7.173C214.786,2.678,211.153-0.639,206.723,0.109z"/>
	<path style="fill:#010002;" d="M252.543,83.793l0.033,21.915l69.808,0.016c4.495,0,7.901-3.463,7.543-7.73
		c-0.219-2.601-0.48-5.178-0.764-7.714c-5.023-46.406-40.228-82.432-85.618-90.17c-4.422-0.764-8.047,2.577-8.047,7.064v47.471
		c0.008,1.284-0.293,2.422-0.715,3.56C245.138,62.13,252.568,72.08,252.543,83.793z"/>
	<path style="fill:#010002;" d="M225.117,75.754c-5.714,0.024-10.331,4.65-10.364,10.364l0.016,19.631l0.016,20.728l0.016,14.908
		c0.016,5.731,4.633,10.356,10.348,10.356c5.739-0.016,10.356-4.633,10.364-10.396l-0.024-14.867l0.016-20.769l-0.016-19.59
		C235.49,80.395,230.856,75.762,225.117,75.754z"/>
	<path style="fill:#010002;" d="M320.604,452.009c0.024,0,0.041,0,0.065,0c6.706,0,12.16-5.422,12.193-12.128l0.187-37.066
		c0.033-6.722-5.373-12.201-12.095-12.258l-66.695-0.512c-9.088-0.065-17.655-3.536-23.508-9.527
		c-4.747-4.861-7.299-11.039-7.202-17.379l0.642-38.968c0.114-6.739-5.251-12.282-11.998-12.396c-0.065,0-0.138,0-0.203,0
		c-6.633,0-12.071,5.324-12.185,11.99l-0.642,38.968c-0.211,12.9,4.812,25.264,14.136,34.823
		c10.356,10.608,25.223,16.753,40.773,16.875l54.526,0.423l-0.13,24.898C308.444,446.482,313.873,451.969,320.604,452.009z"/>
</g>
<g>
</g>
<g>
</g>
<g>
</g>
<g>
</g>
<g>
</g>
<g>
</g>
<g>
</g>
<g>
</g>
<g>
</g>
<g>
</g>
<g>
</g>
<g>
</g>
<g>
</g>
<g>
</g>
<g>
</g>
</svg>
