<?xml version="1.0" encoding="iso-8859-1"?>
<!-- Generator: Adobe Illustrator 18.1.1, SVG Export Plug-In . SVG Version: 6.00 Build 0)  -->
<svg version="1.1" id="Capa_1" xmlns="http://www.w3.org/2000/svg" xmlns:xlink="http://www.w3.org/1999/xlink" x="0px" y="0px"
	 viewBox="0 0 399.934 399.934" style="enable-background:new 0 0 399.934 399.934;" xml:space="preserve">
<g>
	<path style="fill:#010002;" d="M155.84,311.723c23.654,0,46.008-5.446,66.093-14.916l87.585,87.618
		c20.703,20.679,54.234,20.679,74.88,0c20.703-20.655,20.703-54.234,0-74.88l-87.585-87.65c9.47-20.053,14.916-42.407,14.916-66.061
		C311.73,69.922,241.792,0,155.84,0C69.954,0,0.007,69.922,0.007,155.833C0.015,241.801,69.954,311.723,155.84,311.723z
		 M155.84,45.414c60.924,0,110.451,49.552,110.451,110.419c0,60.956-49.527,110.484-110.451,110.484
		c-60.867,0-110.419-49.527-110.419-110.484C45.421,94.966,94.973,45.414,155.84,45.414z"/>
</g>
<g>
</g>
<g>
</g>
<g>
</g>
<g>
</g>
<g>
</g>
<g>
</g>
<g>
</g>
<g>
</g>
<g>
</g>
<g>
</g>
<g>
</g>
<g>
</g>
<g>
</g>
<g>
</g>
<g>
</g>
</svg>
