<?xml version="1.0" encoding="iso-8859-1"?>
<!-- Generator: Adobe Illustrator 18.1.1, SVG Export Plug-In . SVG Version: 6.00 Build 0)  -->
<svg version="1.1" id="Capa_1" xmlns="http://www.w3.org/2000/svg" xmlns:xlink="http://www.w3.org/1999/xlink" x="0px" y="0px"
	 viewBox="0 0 447.652 447.652" style="enable-background:new 0 0 447.652 447.652;" xml:space="preserve">
<g>
	<path style="fill:#010002;" d="M402.056,66.564c-2.707-3.861-7.299-5.601-11.778-4.934c-0.179-0.041-0.341-0.114-0.52-0.138
		L246.248,40.43c-24.28-3.536-61.306,0.26-84.342,8.698L52.893,89.08c-0.065,0.024-0.122,0.065-0.187,0.089
		c-0.154,0.065-0.301,0.163-0.463,0.219c-0.805,0.358-1.553,0.78-2.243,1.276c-0.211,0.154-0.415,0.309-0.626,0.48
		c-0.756,0.618-1.447,1.292-2.024,2.065c-0.033,0.049-0.081,0.073-0.114,0.122l-38.164,52.21C0.334,157.49-2.243,171.146,2,183.014
		c4.243,11.86,14.9,20.793,29.23,24.491l14.575,3.764v92.674c0,27.857,20.866,56.047,47.495,64.183l119.71,36.579
		c8.21,2.512,18.127,3.837,28.661,3.837l0,0c20.273,0,40.911-4.739,55.217-12.681l70.605-39.18
		c23.443-13.014,41.813-44.203,41.813-71.019v-92.633l11.291-5.422c13.071-6.275,22.159-16.964,25.597-30.092
		c3.438-13.128,0.748-26.897-7.576-38.781L402.056,66.564z M341.596,83.577l-80.392,37.375c-4.072,1.894-10.949,2.772-15.363,1.951
		L111.167,98.095c-4.414-0.821-4.576-2.731-0.358-4.268l59.485-21.809c19.118-6.999,52.283-10.437,72.409-7.462l98.226,14.404
		C345.367,79.618,345.668,81.683,341.596,83.577z"/>
</g>
<g>
</g>
<g>
</g>
<g>
</g>
<g>
</g>
<g>
</g>
<g>
</g>
<g>
</g>
<g>
</g>
<g>
</g>
<g>
</g>
<g>
</g>
<g>
</g>
<g>
</g>
<g>
</g>
<g>
</g>
</svg>
