<?xml version="1.0" encoding="iso-8859-1"?>
<!-- Generator: Adobe Illustrator 18.1.1, SVG Export Plug-In . SVG Version: 6.00 Build 0)  -->
<svg version="1.1" id="Capa_1" xmlns="http://www.w3.org/2000/svg" xmlns:xlink="http://www.w3.org/1999/xlink" x="0px" y="0px"
	 viewBox="0 0 374.971 374.971" style="enable-background:new 0 0 374.971 374.971;" xml:space="preserve">
<g>
	<path style="fill:#010002;" d="M0,149.556c0,69.353,62.224,127.204,145.501,142.112c20.769,49.934,70.808,82.676,127.172,79.416
		c0.073,0,0.195,0,0.317,0c0.236-0.041,0.382,0,0.667,0c-0.122,0-0.236-0.041-0.317-0.041c4.3-0.195,8.397-2.642,10.291-6.787
		c2.682-5.828,0.236-12.689-5.438-15.517c-0.788-0.39-1.634-0.65-2.487-0.845c-0.106-0.024-0.219-0.073-0.325-0.098
		c-0.935-0.187-1.902-0.268-2.861-0.244c0.951-0.049,1.902,0.057,2.861,0.244c0.114,0.024,0.211,0.065,0.325,0.098
		c0.602,0.138,1.203,0.268,1.813,0.528c-23.329-9.933-39.635-30.734-43.545-55.713c-0.154-0.642-0.154-1.268-0.203-1.902
		c81.148-16.013,141.201-73.157,141.201-141.25c0-80.554-83.944-145.892-187.461-145.892C83.984,3.664,0,69.002,0,149.556z
		 M267.625,369.848c0,0,0,0-0.081,0c-0.073-0.033-0.073-0.081-0.154-0.114C267.471,369.767,267.544,369.816,267.625,369.848z"/>
	<path style="fill:#010002;" d="M275.697,347.885c-0.114-0.024-0.211-0.073-0.325-0.098
		C275.486,347.812,275.591,347.861,275.697,347.885z"/>
</g>
<g>
</g>
<g>
</g>
<g>
</g>
<g>
</g>
<g>
</g>
<g>
</g>
<g>
</g>
<g>
</g>
<g>
</g>
<g>
</g>
<g>
</g>
<g>
</g>
<g>
</g>
<g>
</g>
<g>
</g>
</svg>
