<?xml version="1.0" encoding="iso-8859-1"?>
<!-- Generator: Adobe Illustrator 18.1.1, SVG Export Plug-In . SVG Version: 6.00 Build 0)  -->
<svg version="1.1" id="Capa_1" xmlns="http://www.w3.org/2000/svg" xmlns:xlink="http://www.w3.org/1999/xlink" x="0px" y="0px"
	 viewBox="0 0 398.3 398.3" style="enable-background:new 0 0 398.3 398.3;" xml:space="preserve">
<g>
	<path style="fill:#010002;" d="M341.063,207.271h-17.956h-40.643H115.828v-90.764c0-41.83,37.375-75.864,83.318-75.864
		c36.774,0,68.069,21.809,79.091,51.974c4.617,12.656,13.331,23.89,24.548,23.89c11.226,0,20.598-11.039,17.631-24.183
		C308.54,39.651,258.672,0,199.146,0C130.793,0,75.185,52.267,75.185,116.507v90.764c0,0-8.039,0-17.948,0
		c-9.917,0-17.948,10.917-17.948,24.386v142.258c0,13.469,10.917,24.386,24.386,24.386h270.95c13.469,0,24.386-10.917,24.386-24.386
		V231.656C359.011,218.187,350.98,207.271,341.063,207.271z M199.146,316.332c-10.104,0-18.289-8.194-18.289-18.297
		s8.194-18.297,18.289-18.297c10.104,0,18.297,8.194,18.297,18.297S209.258,316.332,199.146,316.332z"/>
</g>
<g>
</g>
<g>
</g>
<g>
</g>
<g>
</g>
<g>
</g>
<g>
</g>
<g>
</g>
<g>
</g>
<g>
</g>
<g>
</g>
<g>
</g>
<g>
</g>
<g>
</g>
<g>
</g>
<g>
</g>
</svg>
