<?xml version="1.0" encoding="iso-8859-1"?>
<!-- Generator: Adobe Illustrator 18.1.1, SVG Export Plug-In . SVG Version: 6.00 Build 0)  -->
<svg version="1.1" id="Capa_1" xmlns="http://www.w3.org/2000/svg" xmlns:xlink="http://www.w3.org/1999/xlink" x="0px" y="0px"
	 viewBox="0 0 398.3 398.3" style="enable-background:new 0 0 398.3 398.3;" xml:space="preserve">
<g>
	<path style="fill:#010002;" d="M341.059,207.271h-17.948v-90.764C323.111,52.267,267.503,0,199.15,0S75.189,52.267,75.189,116.507
		v90.764c0,0-8.039,0-17.948,0c-9.917,0-17.956,10.917-17.956,24.386v142.258c0,13.469,10.917,24.386,24.386,24.386h270.958
		c13.469,0,24.386-10.917,24.386-24.386V231.656C359.015,218.187,350.976,207.271,341.059,207.271z M199.15,316.332
		c-10.104,0-18.297-8.194-18.297-18.297s8.194-18.297,18.297-18.297s18.297,8.194,18.297,18.297S209.254,316.332,199.15,316.332z
		 M282.468,207.271H115.832v-90.764c0-41.83,37.375-75.864,83.318-75.864s83.318,34.026,83.318,75.864V207.271z"/>
</g>
<g>
</g>
<g>
</g>
<g>
</g>
<g>
</g>
<g>
</g>
<g>
</g>
<g>
</g>
<g>
</g>
<g>
</g>
<g>
</g>
<g>
</g>
<g>
</g>
<g>
</g>
<g>
</g>
<g>
</g>
</svg>
