<?xml version="1.0" encoding="iso-8859-1"?>
<!-- Generator: Adobe Illustrator 18.1.1, SVG Export Plug-In . SVG Version: 6.00 Build 0)  -->
<svg version="1.1" id="Capa_1" xmlns="http://www.w3.org/2000/svg" xmlns:xlink="http://www.w3.org/1999/xlink" x="0px" y="0px"
	 viewBox="0 0 435.865 435.865" style="enable-background:new 0 0 435.865 435.865;" xml:space="preserve">
<g>
	<path style="fill:#010002;" d="M27.45,356.026c23.15,13.014,50.503,11.518,71.621-1.479c6.47-3.406,13.16-7.795,19.948-13.006
		c2.439-0.341,4.585-0.52,6.178-0.431c-0.073,0.675-0.033,1.073-0.211,1.918c-0.699,3.276-2.008,7.592-2.934,10.608
		c-1.146,3.804-2.284,7.527-3.048,11.112c-1.471,6.901-1.577,13.233,2.195,18.419c1.666,2.317,5.568,6.194,12.908,6.365
		c12.266,0.211,26.735-9.567,42.057-19.923c3.381-2.292,7.608-5.121,11.38-7.47c-0.081,0.366-0.163,0.772-0.236,1.097l-2.252,11.77
		c-0.975,7.665,1.926,14.209,7.755,17.485c7.324,4.113,17.159,2.024,26.995-5.804c0,0.008,15.347-13.477,15.347-13.477
		c3.048-2.796,6.259-5.755,9.258-8.291c0,0.057-0.528,8.503-0.528,8.503c-0.293,7.6,3.17,13.64,9.258,16.16
		c8.568,3.568,19.248-0.853,30.084-12.469c6.105-6.535,10.624-11.112,14.144-14.493c-0.228,8.007,0.821,18.574,11.697,22.232
		c11.323,3.682,19.273-6.917,31.311-22.963c0,0,4.682-5.934,8.34-10.567c0.341,1.073,0.675,1.821,0.992,3.3
		c1.569,7.373,6.389,12.38,12.851,13.445c13.144,2.13,24.077-12.835,29.425-21.955c2.398-4.072,4.56-6.893,6.259-8.738
		c4.65,8.511,11.087,13.599,18.427,13.997c3.495,0.179,12.266-0.626,18.102-12.087c2.544-5.007,0.463-10.673-4.389-13.469
		c-4.341-2.479-9.697-0.878-13.006,2.772c-0.658-1.024-1.414-2.325-2.154-4.259c-2.439-6.348-7.34-10.283-13.461-10.795
		c-11.843-0.975-21.72,11.396-27.914,21.931c-2.097,3.577-3.975,6.007-5.584,7.877c-3.227-9.258-8.169-15.103-14.729-16.802
		c-5.95-1.553-12.022,0.561-16.647,5.828c-0.008,0.024-13.331,16.916-13.331,16.916c-1.447,1.894-3.154,4.154-4.853,6.365
		c0.26-6.21-0.065-12.681-4.251-17.907c-0.073-0.057-8.917-4.381-8.917-4.381c-6.869-0.203-13.957,3.975-37.692,29.385
		c-0.943,1-1.52,1.341-2.349,2.089c0.732-9.876,1.024-18.419-5.243-23.597c-2.016-1.65-6.308-4.162-12.583-2.463
		c-8.933,2.471-17.216,10.136-26.816,19.005c0,0-11.973,10.526-13.372,11.754c0.203-1.032,0.341-1.748,0.341-1.748
		c0.203-0.984,0.431-1.975,0.642-2.951c1.943-9.104,3.162-18.151-3.593-24.426c-9.803-8.998-22.671-0.293-40.488,11.77
		c-6.861,4.633-17.151,11.583-24.215,14.713c0.634-2.487,1.398-5.113,2.016-7.129c1.187-3.894,2.374-7.82,3.203-11.665
		c1.187-5.584,1.609-10.957,0.033-15.753c-1.284-3.894-3.438-6.641-6.194-8.576c19.354-19.167,38.635-44.415,55.388-73.921
		c0.122-0.228,0.268-0.48,0.39-0.699c0.146-0.252,0.268-0.48,0.398-0.723c28.109-50.543,41.943-100.981,39.741-136.048
		c0.122-24.8-12.835-48.942-35.985-61.956c-10.258-5.755-21.354-8.665-32.352-8.99c-5.21-0.691-10.583,1.772-13.331,6.665
		l-49.153,87.488c-2.561,4.552-2.113,10.006,0.65,14.054l-0.008,0.024c6.031,9.575,14.477,17.826,25.06,23.776
		c7.113,3.999,14.648,6.625,22.256,7.966c-4.942,11.266-10.608,22.711-16.972,34.197c-6.487,11.388-13.315,22.175-20.362,32.254
		c-5.113-5.796-11.282-10.835-18.395-14.835c-10.592-5.95-22.037-8.868-33.335-9.08l-0.033,0.049
		c-4.893-0.26-9.754,2.13-12.331,6.722l-49.145,87.52c-2.747,4.893-2.065,10.754,1.236,14.843
		C8.941,342.297,17.192,350.263,27.45,356.026z"/>
</g>
<g>
</g>
<g>
</g>
<g>
</g>
<g>
</g>
<g>
</g>
<g>
</g>
<g>
</g>
<g>
</g>
<g>
</g>
<g>
</g>
<g>
</g>
<g>
</g>
<g>
</g>
<g>
</g>
<g>
</g>
</svg>
