<?xml version="1.0" encoding="iso-8859-1"?>
<!-- Generator: Adobe Illustrator 18.1.1, SVG Export Plug-In . SVG Version: 6.00 Build 0)  -->
<svg version="1.1" id="Capa_1" xmlns="http://www.w3.org/2000/svg" xmlns:xlink="http://www.w3.org/1999/xlink" x="0px" y="0px"
	 viewBox="0 0 427.086 427.086" style="enable-background:new 0 0 427.086 427.086;" xml:space="preserve">
<g>
	<path style="fill:#010002;" d="M87.661,374.779c81.757,66.752,202.288,62.184,278.558-14.054
		c76.23-76.238,80.798-196.768,14.03-278.55c-2.682-3.292-7.397-3.43-10.396-0.431L87.239,364.39
		C84.239,367.382,84.378,372.096,87.661,374.779z"/>
	<path style="fill:#010002;" d="M224.384,188.878L350.678,62.56c2.999-2.999,2.853-7.714-0.431-10.388
		c-76.303-62.249-186.283-62.249-262.61,0c-3.284,2.682-3.43,7.389-0.431,10.388l126.326,126.318
		C216.532,191.878,221.385,191.878,224.384,188.878z"/>
	<path style="fill:#010002;" d="M171.467,199.128L53.611,316.09c-6.373,6.324-6.413,16.615-0.089,22.988
		c3.178,3.203,7.356,4.804,11.534,4.804c4.137,0,8.275-1.569,11.453-4.723l117.856-116.962c6.373-6.324,6.413-16.615,0.089-22.988
		C188.131,192.837,177.832,192.804,171.467,199.128z"/>
	<path style="fill:#010002;" d="M25.705,291.762c3.162,3.097,7.267,4.641,11.372,4.641c4.219,0,8.429-1.634,11.616-4.885
		L154.6,183.383c6.283-6.413,6.178-16.704-0.236-22.988c-6.413-6.283-16.704-6.178-22.988,0.236L25.47,268.766
		C19.186,275.179,19.292,285.478,25.705,291.762z"/>
	<path style="fill:#010002;" d="M16.26,238.78c4.219,0,8.429-1.634,11.616-4.885l85.488-87.285
		c6.283-6.413,6.178-16.704-0.236-22.988c-6.413-6.283-16.704-6.178-22.988,0.236L4.644,211.151
		c-6.283,6.413-6.178,16.704,0.236,22.988C8.05,237.235,12.155,238.78,16.26,238.78z"/>
	<path style="fill:#010002;" d="M19.812,158.128c4.284,0,8.568-1.683,11.762-5.023l45.236-47.349
		c6.202-6.495,5.966-16.786-0.52-22.988c-6.495-6.202-16.777-5.958-22.988,0.52L8.066,130.637
		c-6.202,6.495-5.966,16.786,0.52,22.988C11.741,156.64,15.78,158.128,19.812,158.128z"/>
</g>
<g>
</g>
<g>
</g>
<g>
</g>
<g>
</g>
<g>
</g>
<g>
</g>
<g>
</g>
<g>
</g>
<g>
</g>
<g>
</g>
<g>
</g>
<g>
</g>
<g>
</g>
<g>
</g>
<g>
</g>
</svg>
