<?xml version="1.0" encoding="iso-8859-1"?>
<!-- Generator: Adobe Illustrator 18.1.1, SVG Export Plug-In . SVG Version: 6.00 Build 0)  -->
<svg version="1.1" id="Capa_1" xmlns="http://www.w3.org/2000/svg" xmlns:xlink="http://www.w3.org/1999/xlink" x="0px" y="0px"
	 viewBox="0 0 353.377 353.377" style="enable-background:new 0 0 353.377 353.377;" xml:space="preserve">
<g>
	<path style="fill:#010002;" d="M34.319,188.18l24.898,15.916c-0.821,2.926-1.211,5.934-0.975,8.885l10.014,124.327
		c0.577,7.291,4.471,12.949,10.396,15.144c1.674,0.626,3.414,0.927,5.162,0.927c4.414,0,8.885-1.943,12.599-5.633l54.063-53.559
		l10.283,14.485c15.005,21.167,35.725,19.11,46.276-4.576L330.614,26.681c10.551-23.687,0.333-33.417-22.817-21.744L36.676,141.741
		C13.534,153.422,12.478,174.207,34.319,188.18z M89.805,181.206l117.027-68.426c10.47-6.129,17.216-0.935,19.029,0.797
		c1.821,1.74,7.308,8.251,1.634,18.996l-57.339,118.311c-2.105,4.341-6.454,6.877-10.982,6.877c-1.788,0-3.593-0.39-5.308-1.219
		c-6.056-2.934-8.592-10.234-5.649-16.29l43.919-90.634l-90.024,52.641c-5.796,3.373-13.274,1.455-16.68-4.373
		C82.034,192.074,83.993,184.603,89.805,181.206z M135.512,273.156L91.219,318.57l-7.893-97.957
		C102.274,235.383,123.286,256.322,135.512,273.156z"/>
</g>
<g>
</g>
<g>
</g>
<g>
</g>
<g>
</g>
<g>
</g>
<g>
</g>
<g>
</g>
<g>
</g>
<g>
</g>
<g>
</g>
<g>
</g>
<g>
</g>
<g>
</g>
<g>
</g>
<g>
</g>
</svg>
