<?xml version="1.0" encoding="iso-8859-1"?>
<!-- Generator: Adobe Illustrator 18.1.1, SVG Export Plug-In . SVG Version: 6.00 Build 0)  -->
<svg version="1.1" id="Capa_1" xmlns="http://www.w3.org/2000/svg" xmlns:xlink="http://www.w3.org/1999/xlink" x="0px" y="0px"
	 viewBox="0 0 282.376 282.376" style="enable-background:new 0 0 282.376 282.376;" xml:space="preserve">
<g>
	<path style="fill:#010002;" d="M5.967,186.498c-3.3,0-5.967,2.667-5.967,5.967v31.72c0,3.3,2.667,5.967,5.967,5.967H20.12
		c0,0,0,8.736,0,19.506c0,10.776,12.477,19.512,27.865,19.512s27.865-8.736,27.865-19.512v-19.506h37.472c0,0,0,8.736,0,19.506
		c0,10.776,12.477,19.512,27.865,19.512c15.395,0,27.871-8.736,27.871-19.512v-19.506h37.454c0,0,0,8.736,0,19.506
		c0,10.776,12.483,19.512,27.871,19.512c15.395,0,27.877-8.736,27.877-19.512v-19.506h14.147c3.3,0,5.967-2.667,5.967-5.967v-31.72
		c0-3.3-2.667-5.967-5.967-5.967h-14.147v-45.975h14.147c3.3,0,5.967-2.667,5.967-5.967v-31.72c0-3.3-2.667-5.967-5.967-5.967
		h-14.147c0,0,0-12.059,0-26.946c0-14.881-5.824-36.374-13.008-47.997c-7.184-11.623-19.661-11.623-27.877,0
		c-8.21,11.623-14.863,33.116-14.863,47.997v26.946h-37.454c0,0,0-12.059,0-26.946c0-14.881-5.824-36.374-13.008-47.997
		c-7.184-11.623-19.661-11.623-27.871,0c-8.204,11.623-14.857,33.116-14.857,47.997v26.946H75.851c0,0,0-12.059,0-26.946
		c0-14.881-5.824-36.374-13.002-47.997c-7.184-11.623-19.661-11.623-27.865,0C26.773,33.549,20.12,55.041,20.12,69.923v26.946H5.967
		c-3.3,0-5.967,2.667-5.967,5.967v31.72c0,3.3,2.667,5.967,5.967,5.967H20.12v45.975C20.12,186.497,5.967,186.497,5.967,186.498z
		 M169.059,146.49c0-3.3,2.667-5.967,5.967-5.967h25.52c3.3,0,5.967,2.667,5.967,5.967v34.041c0,3.3-2.667,5.967-5.967,5.967h-25.52
		c-3.3,0-5.967-2.667-5.967-5.967V146.49z M75.851,146.49c0-3.3,2.667-5.967,5.967-5.967h25.538c3.3,0,5.967,2.667,5.967,5.967
		v34.041c0,3.3-2.667,5.967-5.967,5.967H81.818c-3.3,0-5.967-2.667-5.967-5.967V146.49z"/>
</g>
<g>
</g>
<g>
</g>
<g>
</g>
<g>
</g>
<g>
</g>
<g>
</g>
<g>
</g>
<g>
</g>
<g>
</g>
<g>
</g>
<g>
</g>
<g>
</g>
<g>
</g>
<g>
</g>
<g>
</g>
</svg>
