<?xml version="1.0" encoding="iso-8859-1"?>
<!-- Generator: Adobe Illustrator 18.1.1, SVG Export Plug-In . SVG Version: 6.00 Build 0)  -->
<svg version="1.1" id="Capa_1" xmlns="http://www.w3.org/2000/svg" xmlns:xlink="http://www.w3.org/1999/xlink" x="0px" y="0px"
	 viewBox="0 0 406.125 406.125" style="enable-background:new 0 0 406.125 406.125;" xml:space="preserve">
<g>
	<path style="fill:#010002;" d="M260.133,155.967c-4.487,0-9.25-3.463-10.64-7.73L205.574,13.075c-1.39-4.268-3.633-4.268-5.023,0
		L156.64,148.237c-1.39,4.268-6.153,7.73-10.64,7.73H3.88c-4.487,0-5.186,2.138-1.553,4.78l114.971,83.521
		c3.633,2.642,5.454,8.242,4.064,12.51L77.452,391.932c-1.39,4.268,0.431,5.592,4.064,2.951l114.971-83.521
		c3.633-2.642,9.519-2.642,13.152,0l114.971,83.529c3.633,2.642,5.454,1.317,4.064-2.951l-43.911-135.154
		c-1.39-4.268,0.431-9.868,4.064-12.51l114.971-83.521c3.633-2.642,2.934-4.78-1.553-4.78H260.133V155.967z"/>
</g>
<g>
</g>
<g>
</g>
<g>
</g>
<g>
</g>
<g>
</g>
<g>
</g>
<g>
</g>
<g>
</g>
<g>
</g>
<g>
</g>
<g>
</g>
<g>
</g>
<g>
</g>
<g>
</g>
<g>
</g>
</svg>
