<?xml version="1.0" encoding="iso-8859-1"?>
<!-- Generator: Adobe Illustrator 18.1.1, SVG Export Plug-In . SVG Version: 6.00 Build 0)  -->
<svg version="1.1" id="Capa_1" xmlns="http://www.w3.org/2000/svg" xmlns:xlink="http://www.w3.org/1999/xlink" x="0px" y="0px"
	 viewBox="0 0 410.887 410.887" style="enable-background:new 0 0 410.887 410.887;" xml:space="preserve">
<g>
	<path style="fill:#010002;" d="M375.673,252.417c0.081-0.504,0.309-0.919,0.309-1.455v-43.171V53.063v-31.84
		C375.982,9.494,366.488,0,354.726,0H145.732c-11.681,0-21.224,9.494-21.224,21.224v260.163
		c-21.443-4.284-46.756,3.536-65.825,22.622c-27.816,27.848-31.815,69.012-8.885,91.975c22.955,22.955,64.126,18.931,91.967-8.885
		c15.444-15.412,23.264-34.969,23.573-53.234c0.39-1.227,0.756-2.487,0.756-3.861v-28.052V114.873h168.302v82.944
		c-21.329-4.089-46.382,3.739-65.321,22.654c-27.816,27.824-31.84,69.044-8.909,91.967c22.988,22.931,64.151,18.94,91.999-8.885
		C367.016,288.727,374.869,270.072,375.673,252.417z M314.733,76.075H178.051c-5.592,0-10.283-3.65-11.957-8.698v-7.933
		c1.674-5.015,6.365-8.665,11.957-8.665h136.682c6.982,0,12.648,5.666,12.648,12.624C327.381,70.41,321.716,76.075,314.733,76.075z"
		/>
</g>
<g>
</g>
<g>
</g>
<g>
</g>
<g>
</g>
<g>
</g>
<g>
</g>
<g>
</g>
<g>
</g>
<g>
</g>
<g>
</g>
<g>
</g>
<g>
</g>
<g>
</g>
<g>
</g>
<g>
</g>
</svg>
