<?xml version="1.0" encoding="iso-8859-1"?>
<!-- Generator: Adobe Illustrator 18.1.1, SVG Export Plug-In . SVG Version: 6.00 Build 0)  -->
<svg version="1.1" id="Capa_1" xmlns="http://www.w3.org/2000/svg" xmlns:xlink="http://www.w3.org/1999/xlink" x="0px" y="0px"
	 viewBox="0 0 413.427 413.427" style="enable-background:new 0 0 413.427 413.427;" xml:space="preserve">
<g>
	<path style="fill:#010002;" d="M162.799,24.471c-24.077,0-43.675,19.606-43.675,43.699c0,8.502,6.95,15.428,15.477,15.428
		c8.502,0,15.42-6.926,15.42-15.428c0-7.047,5.731-12.786,12.77-12.786h87.837c7.015,0,12.729,5.739,12.729,12.786
		c0,8.502,6.942,15.428,15.485,15.428c8.527,0,15.461-6.926,15.461-15.428c0-24.093-19.59-43.699-43.675-43.699H162.799z"/>
	<path style="fill:#010002;" d="M41.919,388.956h329.589c23.142,0,41.919-18.761,41.919-41.952V141.075
		c0-23.166-18.785-41.943-41.919-41.943H41.919C18.761,99.132,0,117.917,0,141.075v205.929C0,370.196,18.769,388.956,41.919,388.956
		z M348.399,319.904H66.191c-5.649,0-10.218-4.552-10.218-10.201c0-5.633,4.568-10.234,10.218-10.234h282.2
		c5.625,0,10.201,4.601,10.201,10.234C358.6,315.352,354.016,319.904,348.399,319.904z M348.106,254.266h-282.2
		c-5.649,0-10.218-4.552-10.218-10.201c0-5.633,4.568-10.234,10.218-10.234h282.2c5.625,0,10.201,4.601,10.201,10.234
		C358.316,249.714,353.731,254.266,348.106,254.266z M65.622,168.184h282.2c5.625,0,10.201,4.593,10.201,10.234
		c0,5.649-4.576,10.201-10.201,10.201h-282.2c-5.649,0-10.218-4.552-10.218-10.201C55.404,172.785,59.973,168.184,65.622,168.184z"
		/>
</g>
<g>
</g>
<g>
</g>
<g>
</g>
<g>
</g>
<g>
</g>
<g>
</g>
<g>
</g>
<g>
</g>
<g>
</g>
<g>
</g>
<g>
</g>
<g>
</g>
<g>
</g>
<g>
</g>
<g>
</g>
</svg>
