<?xml version="1.0" encoding="iso-8859-1"?>
<!-- Generator: Adobe Illustrator 18.1.1, SVG Export Plug-In . SVG Version: 6.00 Build 0)  -->
<svg version="1.1" id="Capa_1" xmlns="http://www.w3.org/2000/svg" xmlns:xlink="http://www.w3.org/1999/xlink" x="0px" y="0px"
	 viewBox="0 0 419.984 419.984" style="enable-background:new 0 0 419.984 419.984;" xml:space="preserve">
<g>
	<path style="fill:#010002;" d="M417.795,260.908c-9.559,11.689-24.028,18.631-39.342,18.493c0,0-97.941,0-97.941,0.024
		l0.049-29.003c0.008-4.487-2.26-5.3-5.007-1.748c-12.681,16.403-44.992,60.143-44.992,80.253c0,20.094,32.311,63.842,44.992,80.245
		c2.747,3.552,5.015,2.739,5.007-1.748l-0.049-28.889h49.918c12.038,0.089,23.76-6.096,30.198-17.241l57.721-100.022
		C420.591,257.38,420.64,257.428,417.795,260.908z"/>
	<path style="fill:#010002;" d="M358.221,54.629l-25.028,14.51c0.016,0-12.526-21.898-17.533-30.572
		c-7.088-12.185-20.118-19.858-34.213-19.817c-14.111,0.016-27.166,7.747-34.091,20.021c-0.024,0.024-11.51,19.793-23.053,39.911
		l23.297,40.342l-25.329,14.192c-3.91,2.195-3.503,4.536,0.943,5.129c20.549,2.78,74.596,8.868,92.015-1.187
		c17.395-10.055,39.131-59.875,47.008-79.059C363.935,53.946,362.106,52.377,358.221,54.629z"/>
	<path style="fill:#010002;" d="M334.347,153.041l-15.428,8.909c-19.444,11.226-26.101,36.083-14.867,55.518l29.702,51.446
		c23.199,0,46.073,0.008,46.097,0.008c14.136,0.106,27.288-7.446,34.368-19.647c7.039-12.201,6.974-27.393-0.187-39.554
		c0-0.016-10.99-19.037-24.15-41.822C378.648,148.465,353.782,141.816,334.347,153.041z"/>
	<path style="fill:#010002;" d="M4.611,257.55l57.745,100.022c2.243,3.894,2.178,3.894,0.585-0.301
		c-5.324-14.111-4.121-30.125,3.65-43.35l48.983-84.822l25.093,14.55c3.885,2.252,5.723,0.691,4.016-3.463
		c-7.86-19.183-29.596-69.036-46.999-79.083c-17.428-10.047-71.475-3.942-92.015-1.162c-4.454,0.602-4.885,2.975-0.992,5.21
		l25.101,14.404L4.79,222.801C-1.314,233.165-1.81,246.398,4.611,257.55z"/>
	<path style="fill:#010002;" d="M98.041,280.473c-11.575,20.094-23.028,39.911-23.045,39.944
		c-7.145,12.144-7.226,27.296-0.154,39.521c7.056,12.234,20.216,19.777,34.319,19.671c0.024,0,22.004,0,48.308,0
		c22.451,0,40.651-18.2,40.651-40.643v-17.85c0-22.443-18.192-40.643-40.643-40.643C157.477,280.473,98.041,280.473,98.041,280.473z
		"/>
	<path style="fill:#010002;" d="M158.119,8.597c-12.876,0-23.727,7.251-29.986,17.493c-5.755,9.332-19.874,33.815-31.97,54.917
		c-11.161,19.476-4.389,44.398,15.046,55.624l15.753,9.088c19.444,11.226,44.284,4.552,55.502-14.892
		c20.029-34.709,48.682-84.366,56.144-97.201c7.69-13.241,20.321-22.02,35.01-24.386c4.438-0.715,4.471-0.642-0.024-0.642
		C273.594,8.597,158.119,8.597,158.119,8.597z"/>
</g>
<g>
</g>
<g>
</g>
<g>
</g>
<g>
</g>
<g>
</g>
<g>
</g>
<g>
</g>
<g>
</g>
<g>
</g>
<g>
</g>
<g>
</g>
<g>
</g>
<g>
</g>
<g>
</g>
<g>
</g>
</svg>
