<?xml version="1.0" encoding="iso-8859-1"?>
<!-- Generator: Adobe Illustrator 18.1.1, SVG Export Plug-In . SVG Version: 6.00 Build 0)  -->
<svg version="1.1" id="Capa_1" xmlns="http://www.w3.org/2000/svg" xmlns:xlink="http://www.w3.org/1999/xlink" x="0px" y="0px"
	 viewBox="0 0 415.468 415.468" style="enable-background:new 0 0 415.468 415.468;" xml:space="preserve">
<g>
	<circle style="fill:#010002;" cx="207.734" cy="247.743" r="62.427"/>
	<path style="fill:#010002;" d="M399.552,391.293c8.811,0,15.916-7.096,15.916-15.891V62.184c0-8.779-7.104-15.916-15.916-15.916
		H125.969V40.09c0-8.779-7.129-15.916-15.916-15.916H33.571c-8.787,0-15.916,7.137-15.916,15.916v6.178h-1.74
		C7.104,46.268,0,53.405,0,62.184v313.218c0,8.795,7.104,15.891,15.916,15.891C15.916,391.293,399.552,391.293,399.552,391.293z
		 M302.164,249.238c0,52.185-42.293,94.438-94.43,94.438s-94.43-42.252-94.43-94.438c0-52.137,42.293-94.397,94.43-94.397
		C259.871,154.841,302.164,197.102,302.164,249.238z M30.937,80.766c0-4.406,3.56-7.966,7.942-7.966h111.175
		c4.381,0,7.95,3.56,7.95,7.966v24.955c0,4.373-3.568,7.966-7.95,7.966H38.879c-4.381,0-7.942-3.593-7.942-7.966V80.766z"/>
</g>
<g>
</g>
<g>
</g>
<g>
</g>
<g>
</g>
<g>
</g>
<g>
</g>
<g>
</g>
<g>
</g>
<g>
</g>
<g>
</g>
<g>
</g>
<g>
</g>
<g>
</g>
<g>
</g>
<g>
</g>
</svg>
