<?xml version="1.0" encoding="iso-8859-1"?>
<!-- Generator: Adobe Illustrator 18.1.1, SVG Export Plug-In . SVG Version: 6.00 Build 0)  -->
<svg version="1.1" id="Capa_1" xmlns="http://www.w3.org/2000/svg" xmlns:xlink="http://www.w3.org/1999/xlink" x="0px" y="0px"
	 viewBox="0 0 452.42 452.42" style="enable-background:new 0 0 452.42 452.42;" xml:space="preserve">
<g>
	<path style="fill:#010002;" d="M226.226,87.447c-76.693,0-138.795,62.135-138.795,138.82c0,76.596,62.11,138.714,138.795,138.714
		c76.636,0,138.763-62.119,138.763-138.714C364.989,149.582,302.863,87.447,226.226,87.447z M132.284,238.281
		c-6.771,0-12.25-5.487-12.25-12.25c0-6.747,5.479-12.258,12.25-12.258c6.779,0,12.258,5.519,12.258,12.258
		C144.534,232.794,139.064,238.281,132.284,238.281z M236.176,319.518c0,5.552-4.422,9.99-9.949,9.99c-5.511,0-9.99-4.438-9.99-9.99
		V230.38l-34.286-34.303c-3.894-3.91-3.894-10.226,0-14.111c3.877-3.91,10.226-3.91,14.111,0l37.188,37.204
		c0.179,0.138,0.244,0.341,0.35,0.504c0.74,0.837,1.406,1.723,1.837,2.747c0.488,1.195,0.74,2.528,0.74,3.845V319.518z
		 M226.194,144.347c-6.763,0-12.258-5.471-12.258-12.225c0-6.747,5.495-12.258,12.258-12.258c6.747,0,12.25,5.511,12.25,12.258
		C238.444,138.877,232.941,144.347,226.194,144.347z M332.816,226.031c0,6.771-5.495,12.25-12.274,12.25
		c-6.763,0-12.258-5.487-12.258-12.25c0-6.747,5.495-12.258,12.258-12.258C327.33,213.773,332.816,219.285,332.816,226.031z"/>
	<path style="fill:#010002;" d="M226.21,0C101.477,0,0,101.477,0,226.21s101.477,226.21,226.21,226.21s226.21-101.477,226.21-226.21
		S350.943,0,226.21,0z M226.21,411.769c-102.322,0-185.567-83.245-185.567-185.567S123.888,40.643,226.21,40.643
		s185.567,83.245,185.567,185.567S328.533,411.769,226.21,411.769z"/>
</g>
<g>
</g>
<g>
</g>
<g>
</g>
<g>
</g>
<g>
</g>
<g>
</g>
<g>
</g>
<g>
</g>
<g>
</g>
<g>
</g>
<g>
</g>
<g>
</g>
<g>
</g>
<g>
</g>
<g>
</g>
</svg>
