<?xml version="1.0" encoding="iso-8859-1"?>
<!-- Generator: Adobe Illustrator 18.1.1, SVG Export Plug-In . SVG Version: 6.00 Build 0)  -->
<svg version="1.1" id="Capa_1" xmlns="http://www.w3.org/2000/svg" xmlns:xlink="http://www.w3.org/1999/xlink" x="0px" y="0px"
	 viewBox="0 0 377.504 377.504" style="enable-background:new 0 0 377.504 377.504;" xml:space="preserve">
<g>
	<path style="fill:#010002;" d="M239.194,1.501c-4.568-2.219-8.381,0.35-8.381,5.422v267.381
		c53.071-23.036,92.958-75.994,92.958-137.747C323.764,77.121,289.168,25.789,239.194,1.501z"/>
	<path style="fill:#010002;" d="M206.533,62.059L74.517,274.312h136.966l-0.089-210.863
		C211.394,58.361,209.224,57.743,206.533,62.059z"/>
	<path style="fill:#010002;" d="M2.067,316.402l15.038,35.067c5.991,13.997,23.199,25.337,38.424,25.337h266.447
		c15.225,0,32.425-11.348,38.424-25.337l15.038-35.067c5.991-14.006-1.479-25.337-16.712-25.337H18.788
		C3.547,291.065-3.924,302.405,2.067,316.402z"/>
</g>
<g>
</g>
<g>
</g>
<g>
</g>
<g>
</g>
<g>
</g>
<g>
</g>
<g>
</g>
<g>
</g>
<g>
</g>
<g>
</g>
<g>
</g>
<g>
</g>
<g>
</g>
<g>
</g>
<g>
</g>
</svg>
