<?xml version="1.0" encoding="iso-8859-1"?>
<!-- Generator: Adobe Illustrator 18.1.1, SVG Export Plug-In . SVG Version: 6.00 Build 0)  -->
<svg version="1.1" id="Capa_1" xmlns="http://www.w3.org/2000/svg" xmlns:xlink="http://www.w3.org/1999/xlink" x="0px" y="0px"
	 viewBox="0 0 430.628 430.628" style="enable-background:new 0 0 430.628 430.628;" xml:space="preserve">
<g>
	<path style="fill:#010002;" d="M414.143,68.674l-31.62-32.1l-1.837-1.878c-10.648-10.592-24.776-16.428-39.773-16.428
		c-15.013,0-29.149,5.844-39.806,16.46L123.034,212.794c-8.665,8.706-13.063,20.126-13.063,33.929v25.312
		c-0.358,8.673,3.211,17.639,9.567,24.004c6.129,6.088,14.591,9.584,23.223,9.584l1.04-0.016l25.052,0.024
		c13.981-0.024,25.06-4.308,33.888-13.111l176.333-176.39c3.089-3.089,4.78-7.202,4.772-11.575c0-4.357-1.699-8.446-4.755-11.486
		c-6.137-6.194-16.899-6.202-23.093-0.008L179.698,269.393c-1.764,1.731-4.43,3.512-10.852,3.512h-25.491l-0.813,0.252
		c0.041-0.317,0.089-0.707,0.089-26.426c0-7.348,2.374-9.722,3.512-10.86l178.065-178.04c8.901-8.885,24.54-8.868,33.36-0.073
		l33.473,34.002c9.21,9.21,9.21,24.207,0,33.417L148.07,368.22c-7.885,7.828-18.167,11.478-32.376,11.478l-56.965-7.356
		l-0.927,0.016c-4.503,0-8.502-1.609-11.559-4.65c-3.17-3.162-4.82-7.373-4.641-12.014l-8.99-56.429
		c0-14.258,3.674-24.556,11.567-32.4L265.073,45.979c6.316-6.357,6.316-16.712-0.016-23.093c-6.186-6.145-16.883-6.17-23.101,0.008
		l-220.87,220.87C6.901,257.916,0,276.075,0,299.266l8.982,55.819c-0.512,13.168,4.658,26.182,14.184,35.709
		c9.039,9.047,21.614,14.241,34.473,14.241l58.054,7.324c23.069,0,41.187-6.885,55.412-21.053l243.036-243.053
		c10.632-10.681,16.485-24.817,16.485-39.822C430.603,93.393,424.742,79.274,414.143,68.674z"/>
</g>
<g>
</g>
<g>
</g>
<g>
</g>
<g>
</g>
<g>
</g>
<g>
</g>
<g>
</g>
<g>
</g>
<g>
</g>
<g>
</g>
<g>
</g>
<g>
</g>
<g>
</g>
<g>
</g>
<g>
</g>
</svg>
