<?xml version="1.0" encoding="iso-8859-1"?>
<!-- Generator: Adobe Illustrator 18.1.1, SVG Export Plug-In . SVG Version: 6.00 Build 0)  -->
<svg version="1.1" id="Capa_1" xmlns="http://www.w3.org/2000/svg" xmlns:xlink="http://www.w3.org/1999/xlink" x="0px" y="0px"
	 viewBox="0 0 370.907 370.907" style="enable-background:new 0 0 370.907 370.907;" xml:space="preserve">
<g>
	<path style="fill:#010002;" d="M199.378,42.95L42.894,199.401C70.41,226.892,206.498,362.932,206.498,362.98
		c10.535,10.559,27.775,10.559,38.359,0l118.076-118.149c5.162-5.113,7.974-11.933,7.974-19.175c0-7.259-2.821-14.062-7.974-19.175
		L199.378,42.95z"/>
	<path style="fill:#010002;" d="M33.652,189.183l155.508-155.5H53.12L23.467,4.031c-5.365-5.365-14.062-5.365-19.468,0
		c-5.332,5.365-5.332,14.087,0,19.476L33.66,53.144v136.04H33.652z M56.705,75.603c5.365,3.739,12.721,3.512,17.55-1.317
		c4.804-4.828,5.08-12.128,1.284-17.493c6.739-1.032,13.884,1.032,19.078,6.218c8.779,8.698,8.779,22.914,0,31.645
		c-8.746,8.771-22.89,8.746-31.645,0C57.786,89.462,55.721,82.333,56.705,75.603z"/>
</g>
<g>
</g>
<g>
</g>
<g>
</g>
<g>
</g>
<g>
</g>
<g>
</g>
<g>
</g>
<g>
</g>
<g>
</g>
<g>
</g>
<g>
</g>
<g>
</g>
<g>
</g>
<g>
</g>
<g>
</g>
</svg>
