<?xml version="1.0" encoding="iso-8859-1"?>
<!-- Generator: Adobe Illustrator 18.1.1, SVG Export Plug-In . SVG Version: 6.00 Build 0)  -->
<svg version="1.1" id="Capa_1" xmlns="http://www.w3.org/2000/svg" xmlns:xlink="http://www.w3.org/1999/xlink" x="0px" y="0px"
	 viewBox="0 0 402.803 402.803" style="enable-background:new 0 0 402.803 402.803;" xml:space="preserve">
<g>
	<path style="fill:#010002;" d="M371.793,14.339h-31.019H62.045c0,0-13.884,0-31.019,0S0,31.433,0,52.519v202.719
		c0,21.086,17.103,38.18,38.18,38.18h107.842v6.714c0,15.81,21.931,28.621,48.983,28.621h12.794
		c27.052,0,48.983-12.819,48.983-28.621c0-2.317,0-4.552,0-6.714h107.842c21.086,0,38.18-17.094,38.18-38.18V52.519
		C402.82,31.433,388.928,14.339,371.793,14.339z M355.536,238.362c0,3.365-4.731,6.08-10.567,6.08H57.851
		c-5.836,0-10.567-2.715-10.567-6.08V61.395c0-3.357,4.731-6.08,10.567-6.08h287.118c5.836,0,10.567,2.723,10.567,6.08V238.362z"/>
	<path style="fill:#010002;" d="M282.85,388.465c10.803,0,19.598-8.787,19.598-19.598c0-10.811-8.787-19.598-19.598-19.598H119.962
		c-10.803,0-19.598,8.787-19.598,19.598c0,10.811,8.795,19.598,19.598,19.598H282.85z"/>
</g>
<g>
</g>
<g>
</g>
<g>
</g>
<g>
</g>
<g>
</g>
<g>
</g>
<g>
</g>
<g>
</g>
<g>
</g>
<g>
</g>
<g>
</g>
<g>
</g>
<g>
</g>
<g>
</g>
<g>
</g>
</svg>
