<?xml version="1.0" encoding="iso-8859-1"?>
<!-- Generator: Adobe Illustrator 18.1.1, SVG Export Plug-In . SVG Version: 6.00 Build 0)  -->
<svg version="1.1" id="Capa_1" xmlns="http://www.w3.org/2000/svg" xmlns:xlink="http://www.w3.org/1999/xlink" x="0px" y="0px"
	 viewBox="0 0 419.313 419.313" style="enable-background:new 0 0 419.313 419.313;" xml:space="preserve">
<g>
	<path style="fill:#010002;" d="M249.507,268.158c0,7.958-6.47,14.436-14.461,14.436h-50.804c-7.966,0-14.42-6.487-14.42-14.436
		v-48.739H0v131.813c0,23.467,19.029,42.504,42.521,42.504h334.288c23.451,0,42.504-19.037,42.504-42.504V219.411H249.507V268.158z"
		/>
	<path style="fill:#010002;" d="M376.808,118.462H42.521C19.029,118.462,0,137.515,0,160.974v41.423h169.822v-10.047
		c0-7.958,6.454-14.412,14.42-14.412h50.804c7.99,0,14.461,6.454,14.461,14.412v10.047h169.806v-41.423
		C419.313,137.507,400.259,118.462,376.808,118.462z"/>
	<path style="fill:#010002;" d="M276.656,101.132c8.616,0,15.631-7.015,15.631-15.648v-18.07c0-23.069-18.769-41.838-41.83-41.838
		h-81.611c-23.044,0-41.797,18.769-41.797,41.838v18.07c0,8.624,7.007,15.647,15.615,15.647c8.624,0,15.648-7.015,15.648-15.648
		v-18.07c0-5.828,4.731-10.567,10.535-10.567h81.611c5.836,0,10.583,4.739,10.583,10.567v18.07
		C261.041,94.109,268.048,101.132,276.656,101.132z"/>
	<path style="fill:#010002;" d="M186.835,194.927c0,4.69,0,65.98,0,70.645c4.406,0,41.293,0,45.658,0c0-4.666,0-65.955,0-70.645
		C228.128,194.927,191.233,194.927,186.835,194.927z"/>
</g>
<g>
</g>
<g>
</g>
<g>
</g>
<g>
</g>
<g>
</g>
<g>
</g>
<g>
</g>
<g>
</g>
<g>
</g>
<g>
</g>
<g>
</g>
<g>
</g>
<g>
</g>
<g>
</g>
<g>
</g>
</svg>
