<?xml version="1.0" encoding="iso-8859-1"?>
<!-- Generator: Adobe Illustrator 16.0.0, SVG Export Plug-In . SVG Version: 6.00 Build 0)  -->
<!DOCTYPE svg PUBLIC "-//W3C//DTD SVG 1.1//EN" "http://www.w3.org/Graphics/SVG/1.1/DTD/svg11.dtd">
<svg version="1.1" id="Capa_1" xmlns="http://www.w3.org/2000/svg" xmlns:xlink="http://www.w3.org/1999/xlink" x="0px" y="0px"
	 width="298.887px" height="298.887px" viewBox="0 0 298.887 298.887" style="enable-background:new 0 0 298.887 298.887;"
	 xml:space="preserve">
<g>
	<path style="fill:#030303;" d="M51.889,186.185h64.447v4.008c0,1.139,0.212,2.242,0.575,3.316l0.737-2.876
		c1.615-6.261,7.988-10.034,14.264-8.423c6.258,1.613,10.029,8.006,8.42,14.268l-2.604,10.126c2.521,0.412,5.135,0.709,7.885,0.709
		h7.648c2.553,0,4.985-0.251,7.336-0.612l-2.625-10.223c-1.612-6.262,2.156-12.643,8.423-14.268
		c6.272-1.611,12.643,2.162,14.267,8.423l0.938,3.66c0.561-1.321,0.943-2.683,0.943-4.101c0-1.383,0-2.71,0-4.008h64.448
		c12.603,0,22.82-10.218,22.82-22.82V42.222c0-12.6-8.297-22.818-18.544-22.818h-18.537V9.129c0-5.043-4.089-9.129-9.126-9.129
		h-39.935h-68.451H75.287c-5.041,0-9.129,4.086-9.129,9.129v10.27c0,0-8.302,0-18.538,0c-10.241,0-18.544,10.216-18.544,22.818
		v121.147C29.071,175.961,39.294,186.185,51.889,186.185z M57.329,47.52c0-2.007,2.828-3.637,6.315-3.637h171.589
		c3.488,0,6.318,1.629,6.318,3.637v105.757c0,2.013-2.83,3.637-6.318,3.637H63.645c-3.488,0-6.315-1.624-6.315-3.637V47.52z"/>
	<path style="fill:#030303;" d="M104.909,287.176l21.634-84.101c-4.837-2.447-8.349-5.758-9.632-9.566l-23.344,90.745
		c-1.609,6.268,2.159,12.648,8.42,14.261c0.983,0.252,1.961,0.372,2.928,0.372c5.217,0,9.972-3.517,11.336-8.794l21.482-83.501
		c-4.2-0.697-7.982-1.897-11.19-3.522L104.909,287.176z"/>
	<path style="fill:#030303;" d="M131.912,182.21c-6.275-1.617-12.648,2.162-14.264,8.418l-0.737,2.876
		c1.283,3.813,4.794,7.118,9.632,9.565l2.447-9.52l-2.447,9.52c3.202,1.625,6.99,2.825,11.19,3.522l2.604-10.126
		C141.941,190.204,138.17,183.823,131.912,182.21z"/>
	<path style="fill:#030303;" d="M171.821,203.315l21.568,83.855L171.821,203.315c-3.242,1.572-7.033,2.739-11.225,3.374
		l21.459,83.403c1.361,5.277,6.119,8.794,11.334,8.794c0.972,0,1.955-0.12,2.928-0.372c6.261-1.606,10.029-7.993,8.422-14.261
		l-23.146-89.961C180.066,197.901,176.578,201.022,171.821,203.315z"/>
	<path style="fill:#030303;" d="M166.395,182.21c-6.261,1.613-10.029,7.994-8.423,14.262l2.625,10.224
		c4.202-0.641,7.982-1.808,11.225-3.374l-2.511-9.766l2.511,9.766c4.757-2.293,8.245-5.415,9.771-9.023l-0.943-3.659
		C179.037,184.36,172.667,180.593,166.395,182.21z"/>
	<path style="fill:#030303;" d="M120.185,142.404h2.616c9.704,0,17.566-7.862,17.566-17.565V73.605
		c0-9.703-7.862-17.565-17.566-17.565h-2.616c-9.704,0-17.566,7.862-17.566,17.565v51.233
		C102.619,134.542,110.487,142.404,120.185,142.404z"/>
	<path style="fill:#030303;" d="M169.979,142.404h2.619c9.697,0,17.565-7.862,17.565-17.565V94.585
		c0-9.704-7.868-17.566-17.565-17.566h-2.619c-9.703,0-17.568,7.862-17.568,17.566v30.254
		C152.411,134.542,160.282,142.404,169.979,142.404z"/>
</g>
<g>
</g>
<g>
</g>
<g>
</g>
<g>
</g>
<g>
</g>
<g>
</g>
<g>
</g>
<g>
</g>
<g>
</g>
<g>
</g>
<g>
</g>
<g>
</g>
<g>
</g>
<g>
</g>
<g>
</g>
</svg>
