<?xml version="1.0" encoding="iso-8859-1"?>
<!-- Generator: Adobe Illustrator 18.1.1, SVG Export Plug-In . SVG Version: 6.00 Build 0)  -->
<svg version="1.1" id="Capa_1" xmlns="http://www.w3.org/2000/svg" xmlns:xlink="http://www.w3.org/1999/xlink" x="0px" y="0px"
	 viewBox="0 0 270.687 270.687" style="enable-background:new 0 0 270.687 270.687;" xml:space="preserve">
<g>
	<path style="fill:#010002;" d="M45.226,157.328c0-11.092-8.998-20.09-20.09-20.09h-2.989c-11.092,0-20.09,8.998-20.09,20.09v58.469
		c0,11.092,8.998,20.09,20.09,20.09h2.989c11.092,0,20.09-8.992,20.09-20.09V157.328z"/>
	<path style="fill:#010002;" d="M100.748,127.494c0-11.092-8.998-20.09-20.09-20.09h-2.989c-11.092,0-20.09,8.998-20.09,20.09
		v88.304c0,11.092,8.998,20.09,20.09,20.09h2.989c11.092,0,20.09-8.992,20.09-20.09V127.494z"/>
	<path style="fill:#010002;" d="M156.293,97.66c0-11.092-8.998-20.09-20.09-20.09h-2.989c-11.092,0-20.09,8.998-20.09,20.09v118.138
		c0,11.092,8.998,20.09,20.09,20.09h2.989c11.092,0,20.09-8.992,20.09-20.09V97.66z"/>
	<path style="fill:#010002;" d="M211.994,20.09c0-11.092-8.998-20.09-20.09-20.09h-2.989c-11.092,0-20.09,8.998-20.09,20.09v195.707
		c0,11.092,8.998,20.09,20.09,20.09h2.989c11.092,0,20.09-8.992,20.09-20.09V20.09z"/>
	<path style="fill:#010002;" d="M181.539,246.384c-6.701,0-12.149,5.448-12.149,12.143c0,6.707,5.448,12.16,12.149,12.16h17.728
		c6.701,0,12.155-5.454,12.155-12.16c0-6.695-5.454-12.143-12.155-12.143H181.539z"/>
	<path style="fill:#010002;" d="M125.904,246.384c-6.695,0-12.143,5.448-12.143,12.143c0,6.707,5.448,12.16,12.143,12.16h17.578
		c6.707,0,12.166-5.454,12.166-12.16c0-6.695-5.46-12.143-12.166-12.143H125.904z"/>
	<path style="fill:#010002;" d="M70.424,246.384c-6.713,0-12.172,5.448-12.172,12.143c0,6.707,5.46,12.16,12.172,12.16h17.531
		c6.683,0,12.125-5.454,12.125-12.16c0-6.695-5.442-12.143-12.125-12.143H70.424z"/>
	<path style="fill:#010002;" d="M14.92,246.384c-6.695,0-12.143,5.448-12.143,12.143c0,6.707,5.448,12.16,12.143,12.16h17.429
		c6.701,0,12.155-5.454,12.155-12.16c0-6.695-5.454-12.143-12.155-12.143H14.92z"/>
	<path style="fill:#010002;" d="M238.183,246.384c-6.701,0-12.149,5.448-12.149,12.143c0,6.707,5.448,12.16,12.149,12.16h17.728
		c6.701,0,12.155-5.454,12.155-12.16c0-6.695-5.454-12.143-12.155-12.143H238.183z"/>
	<path style="fill:#010002;" d="M268.631,127.494c0-11.092-8.998-20.09-20.09-20.09h-2.989c-11.092,0-20.09,8.998-20.09,20.09
		v88.304c0,11.092,8.998,20.09,20.09,20.09h2.989c11.092,0,20.09-8.992,20.09-20.09V127.494z"/>
</g>
<g>
</g>
<g>
</g>
<g>
</g>
<g>
</g>
<g>
</g>
<g>
</g>
<g>
</g>
<g>
</g>
<g>
</g>
<g>
</g>
<g>
</g>
<g>
</g>
<g>
</g>
<g>
</g>
<g>
</g>
</svg>
