<?xml version="1.0" encoding="iso-8859-1"?>
<!-- Generator: Adobe Illustrator 18.1.1, SVG Export Plug-In . SVG Version: 6.00 Build 0)  -->
<svg version="1.1" id="Capa_1" xmlns="http://www.w3.org/2000/svg" xmlns:xlink="http://www.w3.org/1999/xlink" x="0px" y="0px"
	 viewBox="0 0 447.523 447.523" style="enable-background:new 0 0 447.523 447.523;" xml:space="preserve">
<g>
	<path style="fill:#010002;" d="M382.362,68.111c-19.793-19.809-52.161-35.855-72.296-35.855s-36.449,6.836-36.449,15.257v15.257
		h-99.705V47.514c0-8.421-16.314-15.257-36.449-15.257S84.962,48.31,65.169,68.111l-50.324,50.316
		c-19.793,19.801-19.793,51.901,0,71.702l4.211,4.202c19.793,19.809,46.707,24.987,60.103,11.583
		c13.396-13.404,24.256-24.264,24.256-24.264v182.925c0,27.995,22.703,50.69,50.698,50.69h0.772h137.755h0.772
		c27.995,0,50.698-22.695,50.698-50.69V181.651c0,0,10.86,10.86,24.256,24.264c13.396,13.412,40.31,8.226,60.111-11.583l4.202-4.202
		c19.793-19.809,19.793-51.909,0-71.702L382.362,68.111z"/>
</g>
<g>
</g>
<g>
</g>
<g>
</g>
<g>
</g>
<g>
</g>
<g>
</g>
<g>
</g>
<g>
</g>
<g>
</g>
<g>
</g>
<g>
</g>
<g>
</g>
<g>
</g>
<g>
</g>
<g>
</g>
</svg>
