<?xml version="1.0" encoding="iso-8859-1"?>
<!-- Generator: Adobe Illustrator 18.1.1, SVG Export Plug-In . SVG Version: 6.00 Build 0)  -->
<svg version="1.1" id="Capa_1" xmlns="http://www.w3.org/2000/svg" xmlns:xlink="http://www.w3.org/1999/xlink" x="0px" y="0px"
	 viewBox="0 0 434.879 434.879" style="enable-background:new 0 0 434.879 434.879;" xml:space="preserve">
<g>
	<path style="fill:#010002;" d="M48.771,394.236c0,22.451,18.192,40.643,40.643,40.643h256.05c22.451,0,40.643-18.192,40.643-40.643
		V40.643C386.107,18.192,367.916,0,345.464,0H89.414C66.963,0,48.771,18.192,48.771,40.643
		C48.771,40.643,48.771,394.236,48.771,394.236z M95.681,55.64c0-4.495,3.633-8.129,8.129-8.129h227.251
		c4.495,0,8.129,3.633,8.129,8.129v258.578c0,4.495-3.633,8.129-8.129,8.129H103.81c-4.495,0-8.129-3.633-8.129-8.129V55.64z"/>
	<path style="fill:#010002;" d="M126.692,298.725h182.893c4.495,0,6.6-3.3,4.715-7.373l-68.361-147.826
		c-1.886-4.072-5.08-4.137-7.137-0.146l-44.374,86.147c-2.057,3.983-6.43,4.788-9.762,1.788l-18.403-16.558
		c-3.333-2.999-7.584-2.138-9.47,1.926l-34.798,74.685C120.1,295.425,122.197,298.725,126.692,298.725z"/>
	<path style="fill:#010002;" d="M140.6,145.916c10.518,0,34.408,0,46.926,0c14.006,0,25.353-10.218,25.353-24.215
		c0-12.217-8.633-22.402-20.126-24.808c-0.219,0.057-0.463,0.081-0.707,0.041c-0.675-0.106-16.729-2.455-19.517,11.502
		c-0.154,0.797-0.853,1.349-1.642,1.349c-0.114,0-0.219-0.016-0.333-0.033c-0.91-0.187-1.496-1.073-1.317-1.983
		c0.691-3.438,2.073-6.113,3.869-8.169c-2.812-2.796-6.649-4.544-10.925-4.544c-6.552,0-12.144,4.064-14.42,9.803
		c3.707,2.178,6.804,5.771,7.958,11.526c0.187,0.91-0.415,1.796-1.317,1.975c-0.122,0.024-0.219,0.033-0.333,0.033
		c-0.788,0-1.488-0.545-1.65-1.349c-1.268-6.373-5.292-9.34-9.348-10.681c-0.813-0.106-1.626-0.179-2.463-0.179
		c-10.648,0-19.297,8.641-19.297,19.297C121.303,136.137,129.943,145.916,140.6,145.916z"/>
</g>
<g>
</g>
<g>
</g>
<g>
</g>
<g>
</g>
<g>
</g>
<g>
</g>
<g>
</g>
<g>
</g>
<g>
</g>
<g>
</g>
<g>
</g>
<g>
</g>
<g>
</g>
<g>
</g>
<g>
</g>
</svg>
