<?xml version="1.0" encoding="iso-8859-1"?>
<!-- Generator: Adobe Illustrator 18.1.1, SVG Export Plug-In . SVG Version: 6.00 Build 0)  -->
<svg version="1.1" id="Capa_1" xmlns="http://www.w3.org/2000/svg" xmlns:xlink="http://www.w3.org/1999/xlink" x="0px" y="0px"
	 viewBox="0 0 428.408 428.408" style="enable-background:new 0 0 428.408 428.408;" xml:space="preserve">
<g>
	<path style="fill:#010002;" d="M79.709,428.408H348.7c24.483,0,44.341-19.85,44.341-44.341V44.341
		C393.041,19.858,373.191,0,348.7,0H79.709C55.226,0,35.367,19.85,35.367,44.341v339.734
		C35.367,408.558,55.217,428.408,79.709,428.408z M214.204,392.626c-8.372,0-15.152-6.787-15.152-15.152
		c0-8.372,6.779-15.152,15.152-15.152c8.364,0,15.152,6.779,15.152,15.152C229.356,385.847,222.568,392.626,214.204,392.626z
		 M84.887,69.377c0-4.893,3.967-8.868,8.868-8.868h240.898c4.902,0,8.868,3.967,8.868,8.868v258.229
		c0,4.893-3.967,8.868-8.868,8.868H93.755c-4.893,0-8.868-3.967-8.868-8.868C84.887,327.606,84.887,69.377,84.887,69.377z"/>
</g>
<g>
</g>
<g>
</g>
<g>
</g>
<g>
</g>
<g>
</g>
<g>
</g>
<g>
</g>
<g>
</g>
<g>
</g>
<g>
</g>
<g>
</g>
<g>
</g>
<g>
</g>
<g>
</g>
<g>
</g>
</svg>
