<?xml version="1.0" encoding="iso-8859-1"?>
<!-- Generator: Adobe Illustrator 18.1.1, SVG Export Plug-In . SVG Version: 6.00 Build 0)  -->
<svg version="1.1" id="Capa_1" xmlns="http://www.w3.org/2000/svg" xmlns:xlink="http://www.w3.org/1999/xlink" x="0px" y="0px"
	 viewBox="0 0 415.533 415.533" style="enable-background:new 0 0 415.533 415.533;" xml:space="preserve">
<g>
	<path style="fill:#010002;" d="M205.125,262.825c29.905,0,54.242-24.329,54.242-54.234c0-29.913-24.337-54.242-54.242-54.242
		s-54.242,24.329-54.242,54.242C150.883,238.496,175.22,262.825,205.125,262.825z"/>
	<path style="fill:#010002;" d="M207.766,415.521c114.556,0,207.766-93.202,207.766-207.758S322.322,0.012,207.766,0.012
		S0,93.214,0,207.762S93.21,415.521,207.766,415.521z M179.999,37.412l14.29,24.069c2.398,4.048,6.145,6.365,10.323,6.365
		c4.081,0,7.803-2.227,10.234-6.105l15.631-25.044c75.433,9.958,135.65,68.768,147.696,143.534
		c-1.227,0.317-2.455,0.772-3.601,1.471l-26.995,16.021c-3.991,2.365-6.316,6.08-6.357,10.185
		c-0.057,4.121,2.178,7.901,6.113,10.364l27.198,16.989c1.114,0.691,2.227,1.203,3.373,1.561
		c-12.599,73.946-72.352,131.976-147.143,141.982l-14.778-24.914c-2.276-3.869-6.145-6.17-10.331-6.17
		c-4.081,0-7.901,2.219-10.218,5.909l-15.298,24.5c-74.783-12.087-133.585-72.393-143.461-147.891l18.249-10.819
		c3.967-2.382,6.283-6.105,6.324-10.218c0.033-4.121-2.195-7.885-6.113-10.323l-18.704-11.681
		C45.528,110.845,104.639,49.653,179.999,37.412z"/>
</g>
<g>
</g>
<g>
</g>
<g>
</g>
<g>
</g>
<g>
</g>
<g>
</g>
<g>
</g>
<g>
</g>
<g>
</g>
<g>
</g>
<g>
</g>
<g>
</g>
<g>
</g>
<g>
</g>
<g>
</g>
</svg>
