<?xml version="1.0" encoding="iso-8859-1"?>
<!-- Generator: Adobe Illustrator 18.1.1, SVG Export Plug-In . SVG Version: 6.00 Build 0)  -->
<svg version="1.1" id="Capa_1" xmlns="http://www.w3.org/2000/svg" xmlns:xlink="http://www.w3.org/1999/xlink" x="0px" y="0px"
	 viewBox="0 0 386.774 386.774" style="enable-background:new 0 0 386.774 386.774;" xml:space="preserve">
<g>
	<path style="fill:#010002;" d="M193.387,386.766c106.631,0,193.387-86.748,193.387-193.379S300.018,0.008,193.387,0.008
		C86.756,0.008,0,86.756,0,193.387C0,300.026,86.756,386.766,193.387,386.766z M193.387,34.758
		c87.48,0,158.645,71.158,158.645,158.637s-71.166,158.637-158.645,158.637S34.742,280.875,34.742,193.395
		S105.907,34.758,193.387,34.758z"/>
	<path style="fill:#010002;" d="M193.346,304.789c64.069,0,116.19-52.129,116.19-116.198c0-64.061-52.12-116.19-116.19-116.19
		s-116.19,52.129-116.19,116.19S129.277,304.789,193.346,304.789z M193.346,107.143c44.902,0,81.44,36.538,81.44,81.448
		c0,44.919-36.538,81.448-81.44,81.448c-44.91,0-81.448-36.53-81.448-81.448C111.898,143.681,148.436,107.143,193.346,107.143z"/>
	<circle style="fill:#010002;" cx="193.338" cy="187.778" r="30.214"/>
</g>
<g>
</g>
<g>
</g>
<g>
</g>
<g>
</g>
<g>
</g>
<g>
</g>
<g>
</g>
<g>
</g>
<g>
</g>
<g>
</g>
<g>
</g>
<g>
</g>
<g>
</g>
<g>
</g>
<g>
</g>
</svg>
