<?xml version="1.0" encoding="iso-8859-1"?>
<!-- Generator: Adobe Illustrator 18.1.1, SVG Export Plug-In . SVG Version: 6.00 Build 0)  -->
<svg version="1.1" id="Capa_1" xmlns="http://www.w3.org/2000/svg" xmlns:xlink="http://www.w3.org/1999/xlink" x="0px" y="0px"
	 viewBox="0 0 387.676 387.676" style="enable-background:new 0 0 387.676 387.676;" xml:space="preserve">
<g>
	<path style="fill:#010002;" d="M193.842,387.668c107.045,0,193.834-86.781,193.834-193.834c0-48.243-17.737-92.276-46.91-126.196
		l8.332-8.348l3.251,3.26c2.715,2.715,7.161,2.715,9.852,0l12.323-12.307c2.691-2.707,2.691-7.129,0-9.844l-0.089-0.049
		l-29.287-29.32h-0.024c-2.691-2.723-7.129-2.723-9.852,0l-12.299,12.299c-2.715,2.723-2.715,7.113,0,9.852l3.195,3.178
		l-8.446,8.454C284.126,16.851,240.963,0.008,193.842,0.008S103.558,16.851,69.955,44.805l-8.446-8.454l3.195-3.178
		c2.674-2.739,2.674-7.121,0-9.852L52.364,11.022c-2.682-2.723-7.08-2.723-9.811,0l-29.312,29.32l-0.057,0.049
		c-2.739,2.715-2.739,7.129,0,9.844l12.282,12.307c2.723,2.715,7.145,2.715,9.86,0l3.243-3.26l8.34,8.348
		C17.737,101.55,0,145.583,0,193.826C0.008,300.887,86.797,387.668,193.842,387.668z M193.842,48.024
		c79.205,0,143.453,64.256,143.453,143.461c0,79.254-64.248,143.486-143.453,143.486c-79.254,0-143.453-64.232-143.453-143.486
		C50.389,112.28,114.589,48.024,193.842,48.024z M25.922,157.012c5.462-1.406,11.055,1.918,12.494,7.405
		c1.414,5.503-1.926,11.087-7.413,12.485c-5.495,1.406-11.096-1.926-12.477-7.381C17.127,164.01,20.435,158.426,25.922,157.012z"/>
	<path style="fill:#010002;" d="M18.525,169.521c1.382,5.454,6.982,8.787,12.477,7.381c5.487-1.39,8.828-6.974,7.413-12.485
		c-1.439-5.479-7.031-8.811-12.494-7.405C20.435,158.426,17.127,164.01,18.525,169.521z"/>
	<path style="fill:#010002;" d="M172.261,202.865c-1.398,7.836,0.878,16.2,6.917,22.248c9.811,9.811,25.768,9.811,35.579,0
		c1.114-1.105,2.048-2.3,2.894-3.544l0.138,0.114l67.353-89.374c3.633-3.642,3.633-9.519,0-13.16c-3.633-3.65-9.519-3.65-13.168,0
		l-80.262,60.485l-49.625-34.685c-2.666-2.487-6.828-2.341-9.315,0.333c-2.495,2.666-2.341,6.828,0.333,9.315L172.261,202.865z
		 M197.719,195.956c5.633-0.203,10.372,4.202,10.583,9.844c0.195,5.641-4.211,10.372-9.852,10.575
		c-5.641,0.203-10.372-4.202-10.583-9.844C187.664,200.881,192.07,196.151,197.719,195.956z"/>
</g>
<g>
</g>
<g>
</g>
<g>
</g>
<g>
</g>
<g>
</g>
<g>
</g>
<g>
</g>
<g>
</g>
<g>
</g>
<g>
</g>
<g>
</g>
<g>
</g>
<g>
</g>
<g>
</g>
<g>
</g>
</svg>
