<?xml version="1.0" encoding="iso-8859-1"?>
<!-- Generator: Adobe Illustrator 18.1.1, SVG Export Plug-In . SVG Version: 6.00 Build 0)  -->
<svg version="1.1" id="Capa_1" xmlns="http://www.w3.org/2000/svg" xmlns:xlink="http://www.w3.org/1999/xlink" x="0px" y="0px"
	 viewBox="0 0 442.828 442.828" style="enable-background:new 0 0 442.828 442.828;" xml:space="preserve">
<g>
	<path style="fill:#010002;" d="M345.456,107.301c-1.073,0.293-2.211,0.398-3.398,0.211c-3.276-0.512-80.896-11.851-94.397,55.608
		c-0.772,3.861-4.17,6.535-7.958,6.535c-0.536,0-1.065-0.049-1.601-0.154c-4.406-0.878-7.259-5.162-6.373-9.567
		c3.333-16.647,10.023-29.572,18.688-39.537c-13.558-13.502-32.148-21.947-52.795-21.947c-31.677,0-58.737,19.655-69.727,47.422
		c17.924,10.502,32.921,27.881,38.489,55.721c0.878,4.406-1.967,8.681-6.373,9.567c-0.536,0.106-1.073,0.154-1.601,0.154
		c-3.796,0-7.194-2.674-7.966-6.535c-6.178-30.824-25.605-45.187-45.252-51.673c-3.894-0.512-7.836-0.87-11.876-0.87
		C41.773,152.236,0,194.025,0,245.56c0,51.543,41.781,98.819,93.316,98.819c50.869,0,166.416,0,226.909,0
		c67.711,0,122.603-49.405,122.603-117.117C442.812,168.225,401.056,118.949,345.456,107.301z"/>
</g>
<g>
</g>
<g>
</g>
<g>
</g>
<g>
</g>
<g>
</g>
<g>
</g>
<g>
</g>
<g>
</g>
<g>
</g>
<g>
</g>
<g>
</g>
<g>
</g>
<g>
</g>
<g>
</g>
<g>
</g>
</svg>
