<?xml version="1.0" encoding="iso-8859-1"?>
<!-- Generator: Adobe Illustrator 18.1.1, SVG Export Plug-In . SVG Version: 6.00 Build 0)  -->
<svg version="1.1" id="Capa_1" xmlns="http://www.w3.org/2000/svg" xmlns:xlink="http://www.w3.org/1999/xlink" x="0px" y="0px"
	 viewBox="0 0 413.273 413.273" style="enable-background:new 0 0 413.273 413.273;" xml:space="preserve">
<g>
	<path style="fill:#010002;" d="M289.621,413.273c16.298,0,29.515-13.209,29.515-29.523V29.523C319.136,13.217,305.919,0,289.621,0
		H123.652c-16.314,0-29.515,13.217-29.515,29.523V383.75c0,16.314,13.201,29.523,29.515,29.523H289.621z M206.149,395.252
		c-10.275,0-18.59-8.307-18.59-18.574c0-10.266,8.324-18.574,18.59-18.574c10.242,0,18.574,8.307,18.574,18.574
		C224.723,386.945,216.383,395.252,206.149,395.252z M142.104,81.221c0-4.487,3.633-8.129,8.129-8.129h112.8
		c4.495,0,8.129,3.642,8.129,8.129v242.703c0,4.487-3.633,8.129-8.129,8.129h-112.8c-4.495,0-8.129-3.642-8.129-8.129V81.221z"/>
</g>
<g>
</g>
<g>
</g>
<g>
</g>
<g>
</g>
<g>
</g>
<g>
</g>
<g>
</g>
<g>
</g>
<g>
</g>
<g>
</g>
<g>
</g>
<g>
</g>
<g>
</g>
<g>
</g>
<g>
</g>
</svg>
