<?xml version="1.0" encoding="iso-8859-1"?>
<!-- Generator: Adobe Illustrator 18.1.1, SVG Export Plug-In . SVG Version: 6.00 Build 0)  -->
<svg version="1.1" id="Capa_1" xmlns="http://www.w3.org/2000/svg" xmlns:xlink="http://www.w3.org/1999/xlink" x="0px" y="0px"
	 viewBox="0 0 392.968 392.968" style="enable-background:new 0 0 392.968 392.968;" xml:space="preserve">
<g>
	<path style="fill:#010002;" d="M292.218,0H100.741C78.29,0,59.066,18.167,57.798,40.578L43.841,286.565v65.76
		c0,22.451,18.192,40.643,40.643,40.643h223.999c22.451,0,40.643-18.192,40.643-40.643v-65.76L335.17,40.578
		C333.893,18.167,314.669,0,292.218,0z M274.636,294.116l-6.413,16.03c-1.674,4.17-6.657,7.551-11.152,7.551H141.913
		c-4.495,0-9.925-3.17-12.144-7.064l-9.649-16.997c-2.219-3.894-0.382-7.064,4.113-7.064h145.298
		C274.026,286.565,276.311,289.946,274.636,294.116z M294.998,260.456h-194.07c-4.495,0-7.877-3.625-7.56-8.112l14.095-200.199
		c0.325-4.487,4.211-8.112,8.706-8.112h165.62c4.495,0,8.348,3.633,8.616,8.112l12.225,200.199
		C302.907,256.822,299.493,260.456,294.998,260.456z"/>
	<path style="fill:#010002;" d="M267.946,206.718H123.924c-5.641,0-10.218,4.585-10.218,10.226c0,5.649,4.568,10.226,10.218,10.226
		h144.022c5.617,0,10.201-4.568,10.201-10.226C278.148,211.302,273.563,206.718,267.946,206.718z"/>
	<path style="fill:#010002;" d="M267.946,163.864H123.924c-5.641,0-10.218,4.585-10.218,10.226c0,5.649,4.568,10.226,10.218,10.226
		h144.022c5.617,0,10.201-4.576,10.201-10.226C278.148,168.457,273.563,163.864,267.946,163.864z"/>
	<path style="fill:#010002;" d="M267.946,121.018H123.924c-5.641,0-10.218,4.593-10.218,10.226c0,5.649,4.568,10.226,10.218,10.226
		h144.022c5.617,0,10.201-4.568,10.201-10.226C278.148,125.603,273.563,121.018,267.946,121.018z"/>
	<path style="fill:#010002;" d="M267.946,78.164H123.924c-5.641,0-10.218,4.593-10.218,10.226c0,5.649,4.568,10.226,10.218,10.226
		h144.022c5.617,0,10.201-4.568,10.201-10.226C278.148,82.757,273.563,78.164,267.946,78.164z"/>
</g>
<g>
</g>
<g>
</g>
<g>
</g>
<g>
</g>
<g>
</g>
<g>
</g>
<g>
</g>
<g>
</g>
<g>
</g>
<g>
</g>
<g>
</g>
<g>
</g>
<g>
</g>
<g>
</g>
<g>
</g>
</svg>
