<?xml version="1.0" encoding="iso-8859-1"?>
<!-- Generator: Adobe Illustrator 18.1.1, SVG Export Plug-In . SVG Version: 6.00 Build 0)  -->
<svg version="1.1" id="Capa_1" xmlns="http://www.w3.org/2000/svg" xmlns:xlink="http://www.w3.org/1999/xlink" x="0px" y="0px"
	 viewBox="0 0 448.429 448.429" style="enable-background:new 0 0 448.429 448.429;" xml:space="preserve">
<g>
	<path style="fill:#010002;" d="M260.037,0h-71.653c-17.257,0-31.303,14.038-31.303,31.303v96.551h-29.986
		c-15.834,0-28.653,12.835-28.653,28.653v241.996c0,15.826,12.819,28.661,28.653,28.661h14.843c0,11.738,9.527,21.264,21.264,21.264
		c11.746,0,21.272-9.527,21.272-21.264h88.805c0,11.738,9.527,21.264,21.272,21.264c11.738,0,21.264-9.527,21.264-21.264h5.519
		c15.818,0,28.653-12.835,28.653-28.661V156.508c0-15.818-12.835-28.653-28.653-28.653h-30.011V31.303
		C291.332,14.046,277.294,0,260.037,0z M181.474,31.303c0-3.812,3.105-6.917,6.917-6.917h71.653c3.812,0,6.909,3.105,6.909,6.917
		v84.358h-25.532v-7.722c0-5.731-7.698-10.364-17.2-10.364c-9.502,0-17.192,4.633-17.192,10.364c0,3.121,0,5.828,0,7.722h-25.548
		V31.303H181.474z M294.559,376.28c0,4.495-3.633,8.129-8.129,8.129h-130.61c-4.495,0-8.129-3.633-8.129-8.129V255.221
		c0-4.495,3.633-8.129,8.129-8.129h130.61c4.495,0,8.129,3.633,8.129,8.129V376.28z M294.559,179.991v19.224
		c0,4.495-3.633,8.129-8.129,8.129h-130.61c-4.495,0-8.129-3.633-8.129-8.129v-19.224c0-4.495,3.633-8.129,8.129-8.129h130.61
		C290.926,171.862,294.559,175.496,294.559,179.991z"/>
</g>
<g>
</g>
<g>
</g>
<g>
</g>
<g>
</g>
<g>
</g>
<g>
</g>
<g>
</g>
<g>
</g>
<g>
</g>
<g>
</g>
<g>
</g>
<g>
</g>
<g>
</g>
<g>
</g>
<g>
</g>
</svg>
