<?xml version="1.0" encoding="iso-8859-1"?>
<!-- Generator: Adobe Illustrator 18.1.1, SVG Export Plug-In . SVG Version: 6.00 Build 0)  -->
<svg version="1.1" id="Capa_1" xmlns="http://www.w3.org/2000/svg" xmlns:xlink="http://www.w3.org/1999/xlink" x="0px" y="0px"
	 viewBox="0 0 382.019 382.019" style="enable-background:new 0 0 382.019 382.019;" xml:space="preserve">
<g>
	<path style="fill:#010002;" d="M189.836,292.702c14.127,0,25.581-11.461,25.581-25.581v-170.7l26.288,32.62
		c12.079,14.965,31.116,19.655,42.521,10.445c11.404-9.202,10.868-28.791-1.203-43.772l-63.159-78.335
		c-3.95-4.893-8.649-8.665-13.575-11.242C201.825,2.365,196.135,0,189.836,0c-8.283,0-15.566,4.007-20.24,10.112
		c-2.666,2.057-5.186,4.454-7.462,7.275L98.983,95.722c-12.071,14.973-12.616,34.571-1.211,43.764
		c11.404,9.21,30.45,4.536,42.529-10.445l23.971-29.734v167.814C164.263,281.241,175.716,292.702,189.836,292.702z"/>
	<path style="fill:#010002;" d="M312.39,310.219h-242.5c-13.469,0-20.874,10.331-16.542,23.093l8.698,25.613
		c4.333,12.754,18.761,23.093,32.23,23.093h192.379c13.469,0,28.068-10.283,32.62-22.955l9.275-25.89
		C333.094,320.502,325.859,310.219,312.39,310.219z M264.155,354.243H117.841c-4.495,0-8.129-3.633-8.129-8.129
		c0-4.495,3.633-8.129,8.129-8.129h146.314c4.495,0,8.129,3.633,8.129,8.129C272.284,350.61,268.65,354.243,264.155,354.243z"/>
</g>
<g>
</g>
<g>
</g>
<g>
</g>
<g>
</g>
<g>
</g>
<g>
</g>
<g>
</g>
<g>
</g>
<g>
</g>
<g>
</g>
<g>
</g>
<g>
</g>
<g>
</g>
<g>
</g>
<g>
</g>
</svg>
