<?xml version="1.0" encoding="iso-8859-1"?>
<!-- Generator: Adobe Illustrator 18.1.1, SVG Export Plug-In . SVG Version: 6.00 Build 0)  -->
<svg version="1.1" id="Capa_1" xmlns="http://www.w3.org/2000/svg" xmlns:xlink="http://www.w3.org/1999/xlink" x="0px" y="0px"
	 viewBox="0 0 404.12 404.12" style="enable-background:new 0 0 404.12 404.12;" xml:space="preserve">
<g>
	<path style="fill:#010002;" d="M295.612,30.877c-26.784,0-55.624,15.062-74.393,37.115c-15.298,17.964-23.077,17.964-38.359,0
		c-18.769-22.053-47.568-37.115-74.36-37.115C40.529,30.877,0,82.713,0,150.709c0,27.905,11.144,55.039,28.759,76.498
		c14.965,18.232,46.951,39.911,65.825,54.047c26.841,20.126,62.021,47.796,85.83,78.075c14.583,18.549,28.661,18.549,43.236,0.016
		c23.825-30.303,59.022-57.989,85.878-78.108c18.883-14.136,50.861-35.798,65.825-54.039c17.607-21.476,28.767-48.593,28.767-76.49
		C404.12,82.713,363.551,30.877,295.612,30.877z"/>
</g>
<g>
</g>
<g>
</g>
<g>
</g>
<g>
</g>
<g>
</g>
<g>
</g>
<g>
</g>
<g>
</g>
<g>
</g>
<g>
</g>
<g>
</g>
<g>
</g>
<g>
</g>
<g>
</g>
<g>
</g>
</svg>
