<?xml version="1.0" encoding="iso-8859-1"?>
<!-- Generator: Adobe Illustrator 18.1.1, SVG Export Plug-In . SVG Version: 6.00 Build 0)  -->
<svg version="1.1" id="Capa_1" xmlns="http://www.w3.org/2000/svg" xmlns:xlink="http://www.w3.org/1999/xlink" x="0px" y="0px"
	 viewBox="0 0 408.274 408.274" style="enable-background:new 0 0 408.274 408.274;" xml:space="preserve">
<g>
	<path style="fill:#010002;" d="M344.847,13.932H63.387C28.344,13.932,0,42.366,0,77.319v0.041v253.595
		c0,35.002,28.352,63.387,63.387,63.387h281.46c35.002,0,63.427-28.393,63.427-63.387V77.36v-0.041
		C408.274,42.366,379.848,13.932,344.847,13.932z M365.705,329.793c0,10.445-8.486,18.964-18.948,18.964H64.151
		c-10.461,0-18.98-8.519-18.98-18.964V166.059h320.534V329.793z"/>
	<path style="fill:#010002;" d="M119.831,210.961h12.916v99.022c0,4.081,3.308,7.397,7.389,7.397h12.299
		c4.089,0,7.397-3.308,7.397-7.397V193.151c0-4.081-3.308-7.397-7.397-7.397h-32.604c-4.081,0-7.389,3.308-7.389,7.397v10.421
		C112.443,207.653,115.751,210.961,119.831,210.961z"/>
	<path style="fill:#010002;" d="M217.984,289.556h39.294v20.435c0,4.081,3.308,7.397,7.389,7.397h11.169
		c4.081,0,7.389-3.308,7.389-7.397v-20.435h6.3c3.479,0,6.3-3.308,6.3-7.389v-10.421c0-4.081-2.821-7.389-6.3-7.389s-6.3,0-6.3,0
		l0.065-71.206c0-4.081-3.3-7.397-7.381-7.397h-22.516c-4.081,0-9.088,2.845-11.185,6.34l-35.311,59.103
		c-3.195,5.259-7.137,12.225-7.137,20.305C199.752,283.541,208.774,289.556,217.984,289.556z M257.277,227.21v37.148h-24.752
		L257.277,227.21z"/>
</g>
<g>
</g>
<g>
</g>
<g>
</g>
<g>
</g>
<g>
</g>
<g>
</g>
<g>
</g>
<g>
</g>
<g>
</g>
<g>
</g>
<g>
</g>
<g>
</g>
<g>
</g>
<g>
</g>
<g>
</g>
</svg>
