<?xml version="1.0" encoding="iso-8859-1"?>
<!-- Generator: Adobe Illustrator 18.1.1, SVG Export Plug-In . SVG Version: 6.00 Build 0)  -->
<svg version="1.1" id="Capa_1" xmlns="http://www.w3.org/2000/svg" xmlns:xlink="http://www.w3.org/1999/xlink" x="0px" y="0px"
	 viewBox="0 0 459.557 459.557" style="enable-background:new 0 0 459.557 459.557;" xml:space="preserve">
<g>
	<path style="fill:#010002;" d="M167.308,332.739c4.91,30.125,30.986,53.137,62.517,53.137c31.466,0,57.51-22.947,62.492-53.023
		c5.097,4.861,11.925,7.625,19.029,7.625c3.162,0,6.365-0.545,9.502-1.691c14.314-5.251,21.663-21.102,16.42-35.416
		c-16.436-44.894-59.615-75.059-107.427-75.059c-47.82,0-90.991,30.157-107.46,75.035c-5.251,14.314,2.105,30.173,16.412,35.424
		C148.994,342.502,159.927,339.762,167.308,332.739z"/>
	<path style="fill:#010002;" d="M387.901,240.626c-32.783-55.819-93.316-90.504-157.979-90.504
		c-64.858,0-125.489,34.831-158.223,90.91c-7.69,13.16-3.243,30.068,9.925,37.765c4.373,2.552,9.161,3.772,13.892,3.772
		c9.494,0,18.736-4.91,23.865-13.689c22.882-39.188,65.232-63.533,110.54-63.533c45.162,0,87.447,24.239,110.354,63.248
		c7.722,13.16,24.662,17.541,37.79,9.827C391.218,270.694,395.615,253.778,387.901,240.626z"/>
	<path style="fill:#010002;" d="M229.833,73.682c-98.258,0-187.534,58.022-227.446,147.81c-6.194,13.932,0.081,30.255,14.014,36.44
		c3.642,1.618,7.454,2.39,11.201,2.39c10.575,0,20.671-6.121,25.239-16.403c31.059-69.881,100.526-115.027,176.992-115.027
		c76.368,0,145.794,45.089,176.894,114.857c6.21,13.932,22.532,20.175,36.457,13.989c13.932-6.21,20.175-22.532,13.981-36.457
		C417.197,131.622,327.961,73.682,229.833,73.682z"/>
</g>
<g>
</g>
<g>
</g>
<g>
</g>
<g>
</g>
<g>
</g>
<g>
</g>
<g>
</g>
<g>
</g>
<g>
</g>
<g>
</g>
<g>
</g>
<g>
</g>
<g>
</g>
<g>
</g>
<g>
</g>
</svg>
