<?xml version="1.0" encoding="iso-8859-1"?>
<!-- Generator: Adobe Illustrator 18.1.1, SVG Export Plug-In . SVG Version: 6.00 Build 0)  -->
<svg version="1.1" id="Capa_1" xmlns="http://www.w3.org/2000/svg" xmlns:xlink="http://www.w3.org/1999/xlink" x="0px" y="0px"
	 viewBox="0 0 434.228 434.228" style="enable-background:new 0 0 434.228 434.228;" xml:space="preserve">
<g>
	<path style="fill:#010002;" d="M228.234,0.293c-1.609-0.195-3.219-0.244-4.837-0.122c-2.089-0.057-4.178-0.163-6.283-0.163
		c-2.317,0-4.609,0.106-6.909,0.179c-1.902-0.154-3.796-0.065-5.682,0.219C90.65,6.942,0,101.623,0,217.106
		c0,115.271,90.308,209.815,203.889,216.675c1.414,0.252,2.837,0.439,4.259,0.439c0.675,0,1.333-0.122,2.008-0.171
		c2.317,0.073,4.625,0.171,6.958,0.171c2.113,0,4.211-0.098,6.308-0.163c0.602,0.041,1.203,0.163,1.813,0.163
		c0.886,0,1.756-0.179,2.642-0.276c114.735-5.625,206.352-100.729,206.352-216.838C434.228,101.119,342.806,6.096,228.234,0.293z
		 M337.986,100.217c-8.454,2.235-19.736,4.519-34.62,6.381c-9.909-18.175-21.069-34.595-31.848-48.625
		C296.961,66.695,319.664,81.286,337.986,100.217z M283.655,241.492c-2.024,11.567-5.34,22.898-9.551,33.839
		c-16.761-0.959-35.749-1.398-57.274-1.154c-21.508,0.26-40.44,1.073-57.136,2.284c-4.406-11.274-7.877-22.988-9.958-34.969H283.655
		z M149.745,192.72c2.13-12.225,5.739-24.183,10.299-35.693c16.607,1.195,35.424,2,56.778,2.26c4.178,0.049,8.25,0.073,12.234,0.073
		c16.46,0,31.303-0.431,44.756-1.187c4.349,11.161,7.779,22.727,9.836,34.546C283.647,192.72,149.745,192.72,149.745,192.72z
		 M216.692,68.207c9.836,11.193,21.338,25.564,32.132,42.139c-9.665,0.228-20.102,0.301-31.409,0.163
		c-11.689-0.138-22.435-0.455-32.376-0.902C195.695,93.34,207.002,79.237,216.692,68.207z M161.555,58.404
		c-10.388,13.55-21.11,29.304-30.71,46.707c-14.241-1.878-25.207-4.016-33.522-6.072C115.158,80.944,137.097,66.988,161.555,58.404z
		 M67.199,140.917c10.453,3.723,24.41,7.389,43.033,10.461c-4.487,13.29-7.885,27.117-9.762,41.342H50.747
		C53.437,174.325,59.046,156.898,67.199,140.917z M50.747,241.492h49.722c1.845,13.973,5.154,27.564,9.527,40.635
		c-18.696,3.097-32.669,6.787-43.106,10.535C58.908,276.851,53.397,259.643,50.747,241.492z M96.754,334.572
		c8.307-2.081,19.322-4.251,33.701-6.161c9.706,17.68,20.573,33.685,31.1,47.414C136.828,367.143,114.702,352.951,96.754,334.572z
		 M216.651,366.07c-9.86-11.193-21.386-25.572-32.197-42.187c10.112-0.455,21.045-0.788,32.961-0.927
		c11.502-0.146,22.085-0.065,31.888,0.171C238.354,340.043,226.641,354.698,216.651,366.07z M271.511,376.255
		c10.925-14.217,22.24-30.889,32.246-49.357c15.022,1.886,26.361,4.219,34.798,6.478
		C320.128,352.618,297.229,367.444,271.511,376.255z M367.891,291.515c-10.681-4.048-24.947-7.942-43.951-11.014
		c4.105-12.567,7.21-25.613,8.974-39.009h50.56C380.889,259.212,375.573,276.022,367.891,291.515z M383.482,192.72h-50.56
		c-1.805-13.64-4.991-26.922-9.21-39.708c18.931-3.056,33.173-6.926,43.87-10.957C375.435,157.727,380.856,174.756,383.482,192.72z"
		/>
</g>
<g>
</g>
<g>
</g>
<g>
</g>
<g>
</g>
<g>
</g>
<g>
</g>
<g>
</g>
<g>
</g>
<g>
</g>
<g>
</g>
<g>
</g>
<g>
</g>
<g>
</g>
<g>
</g>
<g>
</g>
</svg>
