<?xml version="1.0" encoding="iso-8859-1"?>
<!-- Generator: Adobe Illustrator 18.1.1, SVG Export Plug-In . SVG Version: 6.00 Build 0)  -->
<svg version="1.1" id="Capa_1" xmlns="http://www.w3.org/2000/svg" xmlns:xlink="http://www.w3.org/1999/xlink" x="0px" y="0px"
	 viewBox="0 0 423.637 423.637" style="enable-background:new 0 0 423.637 423.637;" xml:space="preserve">
<g>
	<path style="fill:#010002;" d="M180.694,76.327c3.593,0,6.535-2.918,6.535-6.535V20.395c0-3.609-2.943-6.552-6.535-6.552L91.28,0
		c-3.609,0-6.535,2.926-6.535,6.535v77.108c0,3.625,2.918,6.552,6.535,6.552L180.694,76.327z"/>
	<path style="fill:#010002;" d="M332.349,90.195c3.609,0,6.552-2.918,6.552-6.552V6.535c0-3.601-2.943-6.535-6.552-6.535
		l-89.398,13.843c-3.609,0-6.535,2.934-6.535,6.552v49.397c0,3.609,2.926,6.535,6.535,6.535L332.349,90.195z"/>
	<path style="fill:#010002;" d="M202.991,14.347c-3.609,0-6.552,2.943-6.552,6.56v48.398c0,3.609,2.943,6.552,6.552,6.552h17.655
		c3.609,0,6.535-2.934,6.535-6.552V20.899c0-3.609-2.918-6.56-6.535-6.56h-17.655V14.347z"/>
	<path style="fill:#010002;" d="M181.068,84.033c0,0-96.332,28.686-133.211,2.04l22.541,34.863l-28.694,38.928
		C41.696,159.865,150.326,163.978,181.068,84.033z"/>
	<path style="fill:#010002;" d="M381.941,159.865l-28.702-38.928l22.541-34.863c-36.887,26.645-133.219-2.04-133.219-2.04
		C273.295,163.978,381.941,159.865,381.941,159.865z"/>
	<path style="fill:#010002;" d="M376.008,177.349c-24.361-0.488-111.711-7.413-140.502-79.904h-7.438v115.621h147.94V177.349z"/>
	<path style="fill:#010002;" d="M195.553,97.445h-7.413c-30.198,76.01-126.521,79.953-145.306,79.953
		c-1.553,0-0.805-0.024-1.13-0.041v35.709h153.858V97.445H195.553z"/>
	<path style="fill:#010002;" d="M41.696,382.994c0,22.451,18.2,40.643,40.643,40.643h113.215V245.581H41.696V382.994z"/>
	<path style="fill:#010002;" d="M228.067,423.637h107.297c22.443,0,40.643-18.192,40.643-40.643V245.581h-147.94V423.637z"/>
</g>
<g>
</g>
<g>
</g>
<g>
</g>
<g>
</g>
<g>
</g>
<g>
</g>
<g>
</g>
<g>
</g>
<g>
</g>
<g>
</g>
<g>
</g>
<g>
</g>
<g>
</g>
<g>
</g>
<g>
</g>
</svg>
