<?xml version="1.0" encoding="iso-8859-1"?>
<!-- Generator: Adobe Illustrator 18.1.1, SVG Export Plug-In . SVG Version: 6.00 Build 0)  -->
<svg version="1.1" id="Capa_1" xmlns="http://www.w3.org/2000/svg" xmlns:xlink="http://www.w3.org/1999/xlink" x="0px" y="0px"
	 viewBox="0 0 453.932 453.932" style="enable-background:new 0 0 453.932 453.932;" xml:space="preserve">
<g>
	<path style="fill:#010002;" d="M278.509,0H175.431c-14.225,0-25.768,9.917-25.768,22.15v22.158h-37.156
		c-24.882,0-45.138,20.232-45.138,45.146v319.347c0,24.89,20.256,45.13,45.138,45.13h228.925c24.865,0,45.13-20.232,45.13-45.13
		v-80.538V89.447c0-24.906-20.265-45.146-45.13-45.146h-37.156c0,0,0-9.917,0-22.158C304.277,9.909,292.742,0,278.509,0z
		 M226.966,18.972c9.681,0,17.533,7.852,17.533,17.533s-7.852,17.533-17.533,17.533c-9.681,0-17.533-7.852-17.533-17.533
		S217.285,18.972,226.966,18.972z M319.299,362.632H134.642c-5.649,0-10.218-4.552-10.218-10.201
		c0-5.633,4.568-10.242,10.218-10.242h184.657c5.625,0,10.201,4.601,10.201,10.242C329.508,358.08,324.924,362.632,319.299,362.632z
		 M319.299,276.266H134.642c-5.649,0-10.218-4.552-10.218-10.201c0-5.633,4.568-10.242,10.218-10.242h184.657
		c5.625,0,10.201,4.601,10.201,10.242C329.508,271.714,324.924,276.266,319.299,276.266z M319.299,169.456
		c5.625,0,10.201,4.601,10.201,10.242c0,5.649-4.576,10.201-10.201,10.201H134.642c-5.649,0-10.218-4.552-10.218-10.201
		c0-5.633,4.568-10.242,10.218-10.242H319.299z"/>
</g>
<g>
</g>
<g>
</g>
<g>
</g>
<g>
</g>
<g>
</g>
<g>
</g>
<g>
</g>
<g>
</g>
<g>
</g>
<g>
</g>
<g>
</g>
<g>
</g>
<g>
</g>
<g>
</g>
<g>
</g>
</svg>
